<?xml version="1.0" encoding="utf-8"?>
<!-- Generator: Adobe Illustrator 27.5.0, SVG Export Plug-In . SVG Version: 6.00 Build 0)  -->
<svg version="1.1" xmlns="http://www.w3.org/2000/svg" xmlns:xlink="http://www.w3.org/1999/xlink" x="0px" y="0px"
	 viewBox="0 0 500 500" style="enable-background:new 0 0 500 500;" xml:space="preserve">
<g id="BACKGROUND">
	<g>
		<rect style="fill:#E6FFFF;" width="500" height="500"/>
	</g>
</g>
<g id="OBJECTS">
	<g>
		<rect y="403.092" style="fill:#18D4DE;" width="500" height="96.908"/>
	</g>
	<path style="opacity:0.2;fill:#1B2346;" d="M384.454,433.598c-10.998,0-21.286,1.195-30.088,3.27
		c-4.925-10.847-28.936-19.081-57.837-19.081c-32.463,0-58.779,10.386-58.779,23.197c0,3.081,1.536,6.02,4.299,8.709
		c-9.56-2.656-21.206-4.22-33.785-4.22c-13.807,0-26.492,1.884-36.523,5.029c1.684-2.16,2.594-4.453,2.594-6.831
		c0-12.811-26.316-23.197-58.779-23.197s-58.779,10.386-58.779,23.197c0,12.811,26.316,23.197,58.779,23.197
		c13.807,0,26.492-1.884,36.523-5.029c-1.684,2.16-2.594,4.453-2.594,6.831c0,12.811,26.316,23.197,58.779,23.197
		s58.779-10.386,58.779-23.197c0-3.081-1.536-6.02-4.3-8.709c9.56,2.656,21.206,4.22,33.785,4.22c10.998,0,21.286-1.195,30.088-3.27
		c4.925,10.846,28.936,19.081,57.837,19.081c32.463,0,58.779-10.386,58.779-23.197C443.233,443.984,416.917,433.598,384.454,433.598
		z"/>
	<g>
		<g>
			<path style="fill:#1B2346;" d="M120.755,76.72c-10.153,0.936-9.591,5.645-15.036,6.875c-5.445,1.23-11.066,2.067-16.071,4.538
				c-1.96,0.967-3.823,2.184-5.929,2.767s-4.602,0.4-6.146-1.147c-1.543-1.547-1.424-4.647,0.562-5.559
				c-2.143-0.618-3.71-2.828-3.585-5.055c0.125-2.227,1.93-4.247,4.129-4.622c-5.878-3.046-1.754-10.607,3.833-7.883
				c-5.587-10.284,5.41-17.844,13.507-8.915c0.837-6.18,9.772-8.242,11.147,0.693c1.375-7.56,11.435-5.063,10.309,1.375
				c4.124-3.436,7.56,1.375,4.352,4.84C127.784,63.911,130.909,75.784,120.755,76.72z"/>
		</g>
		<g>
			<g>
				<path style="fill:#C45F48;" d="M96.537,408.848c0,0-0.096,6.209-0.264,9.733c-0.168,3.524,1.343,13.425,0,17.788
					c-1.343,4.363-7.719,9.733-10.069,9.565s-5.706-7.552-3.692-14.432c2.014-6.88,5.738-11.02,4.786-22.655H96.537z"/>
				<path style="fill:#B24934;" d="M96.301,420.631c-0.037-0.801-0.054-1.507-0.028-2.05c0.168-3.524,0.264-9.733,0.264-9.733
					h-9.239c0.396,4.837-0.022,8.37-0.784,11.352C89.649,418.655,92.938,419.296,96.301,420.631z"/>
				<path style="fill:#1B2346;" d="M82.901,430.257c-0.136,0.416-0.267,0.831-0.388,1.246c-2.014,6.88,1.342,14.264,3.692,14.432
					c2.349,0.168,8.726-5.202,10.069-9.565c0.587-1.907,0.629-4.873,0.504-7.902C93.587,437.203,83.425,437.203,82.901,430.257z"/>
			</g>
			<g>
				<path style="fill:#C45F48;" d="M123.035,409.923c0,0,0.096,6.209,0.264,9.733c0.168,3.524-1.343,13.425,0,17.788
					s7.719,7.815,10.069,7.648c2.349-0.168,5.706-5.634,3.692-12.514c-2.014-6.88-5.119-11.407-4.786-22.655H123.035z"/>
				<path style="fill:#B24934;" d="M133.261,420.86c-0.69-2.95-1.122-6.39-0.987-10.938h-9.239c0,0,0.096,6.209,0.264,9.733
					c0.031,0.641,0.005,1.497-0.049,2.488C126.54,419.95,129.973,419.839,133.261,420.86z"/>
				<path style="fill:#1B2346;" d="M136.672,431.332c0.136,0.416,0.267,0.831,0.388,1.246c2.014,6.88-1.342,12.346-3.692,12.514
					c-2.349,0.168-8.726-3.284-10.069-7.648c-0.587-1.907-0.629-4.873-0.504-7.902C126.841,437.997,136.699,436.48,136.672,431.332z
					"/>
			</g>
			<path style="fill:#00ADC0;" d="M140.118,345.591c-3.239-17.921,9.817-43.195,10.138-56.249
				c0.535-21.74-2.989-30.913-2.989-30.913l-57.493-3.869c0,0-5.604,8.599-6.477,18.174c-0.475,7.885,0.283,15.871,1.665,24.167
				c3.436,15.808,6.554,31.612,1.375,46.736c-7.741,22.601-6.052,39.765-2.821,71.091c0,0,4.303,1.941,8.572,2
				c4.745,0.065,9.372-2,9.372-2c5.636-37.513,3.019-58.162,6.87-73.153c5.568-21.673,7.198-38.882,10.191-61.368
				c0.294,14.905,0.154,51.022,1.342,64.048c1.188,13.026-4.335,28.121-0.394,70.472c0,0,4.412,3,9.657,3c5.244,0,8.257-3,8.257-3
				S145.484,375.285,140.118,345.591z"/>
			<path style="opacity:0.2;fill:#274470;" d="M150.306,286.039c0.124-19.364-3.038-27.61-3.038-27.61l-57.493-3.869
				c0,0-5.604,8.599-6.477,18.174c-0.211,3.502-0.168,7.026,0.054,10.586c12.555-1.39,22.006-0.387,34.11,5.026
				c0.339-2.644,0.689-5.351,1.061-8.139c0.045,2.276,0.08,5.051,0.111,8.159C129.849,284.54,140.007,284.139,150.306,286.039z"/>
			<g>
				<path style="fill:#1B2346;" d="M137.182,142.262c10.67-4.85,17.677-31.024,12.371-48.11
					c-5.994-19.3-22.434-24.168-34.789-23.782c-15.78,0.493-30.664,5.888-37.157,20.815c-8.467,19.462-3.656,39.394,12.152,49.703
					C104.615,150.575,128.56,146.241,137.182,142.262z"/>
				<g>
					<path style="fill:#C16047;" d="M123.754,147.033c-0.187,2.628-0.693,13.551,0.113,14.484c0.738,0.855,8.906,2.673,11.828,2.998
						c-1.008,4.898-2.277,9.125-4.719,13.489c-2.442,4.364-6.188,8.172-10.916,9.8c-0.261,0.09-0.532,0.174-0.807,0.152
						c-0.314-0.025-0.6-0.184-0.873-0.342c-9.539-5.533-17.284-12.807-21.819-22.859c1.164-0.05,7.895-1.197,8.67-2.856
						c0.913-1.953,1.475-11.106,0.777-14.855L123.754,147.033z"/>
				</g>
				<g>
					<path style="fill:#B24934;" d="M105.875,158.984c0.512-3.5,0.65-9.158,0.131-11.941l17.747-0.01
						c-0.149,2.096-0.501,9.462-0.228,12.835C117.584,161.222,111.621,160.722,105.875,158.984z"/>
				</g>
				<g>
					<g>
						<path style="fill:#C16047;" d="M143.916,117.04c0.276-0.457,0.565-0.91,0.916-1.313c1.128-1.293,2.926-1.967,4.626-1.733
							c1.7,0.234,3.25,1.367,3.988,2.916c0.233,0.49,0.389,1.014,0.506,1.543c0.988,4.448-0.804,9.289-4.154,12.379
							c-1.258,1.16-2.805,2.128-4.514,2.219c-0.74,0.039-1.516-0.102-2.11-0.546c-0.549-0.41-0.892-1.038-1.142-1.676
							C141.139,128.548,140.83,122.146,143.916,117.04z"/>
					</g>
					<g>
						<path style="fill:#B24934;" d="M151.637,118.748c1.705,1.456-0.237,8.631-2.906,11.093c-1.002,0.924-2.235,1.696-3.596,1.768
							c-0.59,0.031-1.208-0.081-1.681-0.435c-0.437-0.327-0.711-0.827-0.91-1.336C141.831,128.021,147.626,115.323,151.637,118.748z
							"/>
					</g>
					<g>
						<g>
							<path style="fill:#81210B;" d="M150.99,118.896c-1.91,0.537-3.473,1.942-4.665,3.493c-1.531,1.992-1.839,4.324-1.743,6.78
								c0.017,0.441,0.701,0.444,0.687,0c-0.104-3.326,2.303-8.901,5.812-9.942C151.293,119.165,151.204,118.836,150.99,118.896
								L150.99,118.896z"/>
						</g>
					</g>
					<g>
						<g>
							<path style="fill:#81210B;" d="M146.508,124.061c0.785-0.709,1.454-0.079,1.447,0.862c-0.008,1.147-0.881,1.994-1.518,2.848
								c-0.2,0.268,0.174,0.539,0.419,0.419c1.42-0.698,2.372-2.863,1.734-4.349c-0.501-1.164-1.814-1.128-2.648-0.345
								C145.565,123.849,146.128,124.404,146.508,124.061L146.508,124.061z"/>
						</g>
					</g>
				</g>
				<g>
					<path style="fill:#C16047;" d="M86.219,127.265c0.061,3.178,3.137,21.904,23.672,25.818
						c10.505,2.002,21.497-1.595,28.865-11.205c9.125-11.902,6.741-33.796,5.31-38.692c-3.382-11.578-11.873-21.511-25.166-21.036
						C88.443,83.238,85.776,104.07,86.219,127.265z"/>
				</g>
				<path style="fill:#B24934;" d="M146.037,115.643c0,0,1.133-14.274-4.381-22.845c-6.223-9.674-16.834-11.671-27.378-11.329
					c-21.844,0.708-27.437,12.217-29.825,18.806c-2.388,6.589-2.397,13.88-0.913,20.729c0.467,2.155,4.019,3.861,5.548,5.45
					c8.935-5.498-0.613-15.722,7.627-15.722c9.44,0,3.776-10.64,11.957-8.752c10.113,2.334,8.181-8.81,15.103-3.776
					c5.038,3.664,13.025-1.469,11.957,4.405c-1.259,6.922,7.116,4.48,5.664,8.123c-0.801,2.01,3.546,3.737,4.043,7.427
					c0.11,0,0.219,0,0.333,0C145.87,117.384,145.965,116.52,146.037,115.643z"/>
				<path style="fill:#B24934;" d="M120.548,123.135c-2.828-1.492-6.114-0.583-3.419,2.104c2.485,2.479,6.409,1.734,7.57-1.43
					C125.818,120.761,122.477,124.153,120.548,123.135z"/>
				<path style="opacity:0.3;fill:#FFFFFF;" d="M121.131,119.755c-1.029,0-2.343,0.993-1.323,2.011
					c0.941,0.939,2.427,0.657,2.867-0.541C123.099,120.071,121.957,119.755,121.131,119.755z"/>
				<g>
					<g>
						<path style="fill:#81210B;" d="M121.513,115.983c0.61,2.843,5.245,6.794,1.069,9.041c-0.453,0.244-0.137,0.924,0.341,0.81
							c1.898-0.454,2.84-2.251,2.6-4.126c-0.313-2.442-2.828-3.602-3.612-5.835C121.824,115.623,121.457,115.721,121.513,115.983
							L121.513,115.983z"/>
					</g>
				</g>
				<g>
					<path style="fill:#FFFFFF;" d="M127.308,130.665c-4.543,1.974-10.042,1.287-14.997-0.714c0,0,2.501,5.781,7.361,5.781
						C125.858,135.732,127.308,130.665,127.308,130.665z"/>
				</g>
				<g>
					<g>
						<path style="fill:#81210B;" d="M127.241,130.422c-4.908,1.713-10.061,0.874-14.758-1.096c-0.589-0.247-0.93,0.509-0.733,0.953
							c1.52,3.432,4.729,6.366,8.67,5.994c3.184-0.301,6.292-2.355,7.25-5.508c0.141-0.464-0.584-0.662-0.725-0.2
							c-0.931,3.066-4.247,4.715-7.274,4.579c-3.127-0.141-5.589-2.813-6.801-5.52c-0.244,0.318-0.489,0.636-0.733,0.953
							c4.958,2.058,10.202,2.204,15.237,0.331C127.676,130.797,127.551,130.314,127.241,130.422z"/>
					</g>
				</g>
				<path style="fill:#B24934;" d="M115.539,139.732c0,1.332,1.809,2.411,4.04,2.411s4.04-1.08,4.04-2.411
					c0-1.332-1.809-1.369-4.04-1.369S115.539,138.4,115.539,139.732z"/>
				<g>
					<path style="fill:#1B2346;" d="M139.603,111.16c-1.936-2.015-6.584-2.641-9.034-1.176c-1.846,1.104-3.628-1.776-1.71-2.763
						c4.155-2.138,9.362-0.455,12.088,2.96C141.532,110.914,140.251,111.834,139.603,111.16L139.603,111.16z"/>
				</g>
				<g>
					<path style="fill:#1B2346;" d="M96.763,110.063c3.912-3.309,9.949-4.787,14.738-2.208c1.919,1.033,0.118,3.888-1.732,2.763
						c-3.144-1.911-8.822-1.562-11.78,0.588C97.134,111.826,95.916,110.78,96.763,110.063L96.763,110.063z"/>
				</g>
				<ellipse style="fill:#B24934;" cx="135.598" cy="130.731" rx="5.498" ry="4.595"/>
				<ellipse style="opacity:0.25;fill:#FFFFFF;" cx="135.598" cy="128.757" rx="2.171" ry="1.545"/>
				<ellipse style="fill:#B24934;" cx="102.687" cy="131.095" rx="5.498" ry="4.595"/>
				<ellipse style="opacity:0.25;fill:#FFFFFF;" cx="102.687" cy="129.12" rx="2.171" ry="1.545"/>
				<g>
					<path style="fill:#00D0D6;" d="M184.952,217.303c-0.72-4.251-31.038-43.897-37.075-49.51
						c-3.806-3.538-17.195-4.447-17.195-4.447c-2.804,10.871-22.126,8.469-27.962-0.083c-5.161,0.992-18.566,2.079-23.161,7.287
						c-2.788,3.16-10.507,21.54-15.953,34.083c-5.446,12.543-9.618,29.164-7.232,33.312c2.494,4.335,19.36,6.21,30.929,7.194
						c-5.108,12.699-11.42,25.897-11.42,25.897c32.78,15.624,81.491,1.838,81.491,1.838c-1.561-9.914-9.992-39.902-10.774-45.823
						c-0.576-4.359,1.223-28.186,1.223-28.186c4.457,5.03,17.892,17.505,17.892,17.505s-4.087,8.358-7.758,13.411
						c1.955,3.456,4.222,6.723,6.906,9.641C174.942,233.609,185.898,222.887,184.952,217.303z M93.651,225.082
						c-0.177,2.063-0.945,4.125-2.068,7.578c-8.003-3.009-18.303-5.862-18.303-5.862l15.808-26.804
						C89.088,199.994,94.57,214.36,93.651,225.082z"/>
				</g>
				<g>
					<g>
						<path style="fill:#81210B;" d="M119.746,124.983c-0.413-0.779-1.05-1.319-1.882-1.601c-0.928-0.314-1.089,1.373-0.171,1.26
							c0.606-0.074,1.176,0.13,1.528,0.647C119.441,125.61,119.931,125.332,119.746,124.983L119.746,124.983z"/>
					</g>
				</g>
				<path style="fill:#1B2346;" d="M136.489,118.305c-0.178,0.502-0.626,0.893-1.097,1.132c-0.02-0.074-0.041-0.146-0.064-0.218
					c0.151-0.195,0.282-0.398,0.382-0.57c0.318-0.55,0.356-1.378,0.454-1.997c0.041-0.262-0.33-0.38-0.407-0.112
					c-0.153,0.528-0.381,0.825-0.806,1.152c-0.096,0.074-0.185,0.15-0.274,0.224c-0.341-0.423-0.75-0.672-1.191-0.672
					c-1.184,0-2.145,1.783-2.145,3.983s0.96,3.983,2.145,3.983c1.184,0,2.145-1.783,2.145-3.983c0-0.064-0.008-0.124-0.01-0.187
					c0.2-0.181,0.383-0.379,0.543-0.571c0.488-0.584,0.664-1.304,0.774-2.041C136.981,118.137,136.591,118.018,136.489,118.305z"/>
				<path style="fill:#1B2346;" d="M106.61,118.305c-0.178,0.502-0.626,0.893-1.097,1.132c-0.02-0.074-0.041-0.146-0.064-0.218
					c0.151-0.195,0.282-0.398,0.382-0.57c0.318-0.55,0.356-1.378,0.454-1.997c0.041-0.262-0.33-0.38-0.407-0.112
					c-0.153,0.528-0.381,0.825-0.806,1.152c-0.096,0.074-0.185,0.15-0.274,0.224c-0.341-0.423-0.75-0.672-1.191-0.672
					c-1.184,0-2.145,1.783-2.145,3.983s0.96,3.983,2.145,3.983c1.184,0,2.145-1.783,2.145-3.983c0-0.064-0.009-0.124-0.01-0.187
					c0.2-0.181,0.383-0.379,0.543-0.571c0.488-0.584,0.664-1.304,0.774-2.041C107.101,118.137,106.712,118.018,106.61,118.305z"/>
				<path style="fill:#1B2346;" d="M81.194,97.164c2.608-7.196,8.717-19.766,32.573-20.539c11.515-0.373,23.103,1.808,29.9,12.373
					c6.022,9.36,4.785,24.95,4.785,24.95c-0.339,4.174-3.539,7.769-3.015,3.9c0.696-5.14-3.034-6.804-2.054-9.264
					c1.586-3.979-7.56-2.062-6.186-9.622c1.166-6.415-7.556-0.809-13.059-4.811c-7.56-5.498-5.45,6.673-16.495,4.124
					c-8.935-2.062-2.749,10.309-13.059,10.309c-9,0,2.062,11.684-6.777,17.731c-1.669-1.736-7.103-4.158-7.613-6.512
					C78.576,112.323,78.586,104.36,81.194,97.164z"/>
				<g style="opacity:0.5;">
					<g style="opacity:0.25;">
						<g>
							<path style="fill:#FFFFFF;" d="M118.991,73.424c2.93,1.578,6.289,1.738,9.283,3.112c1.557,0.714,3.2,1.889,3.977,3.458
								c0.928,1.873-0.227,3.449,0.181,5.292c0.513,2.317,2.738,2.313,4.653,2.355c2.262,0.049,3.925,1.256,4.303,3.586
								c0.341,2.103-0.718,3.785-1.843,5.442c-0.705,1.039,0.89,2.261,1.737,1.34c2.128-2.311,3.187-5.849,1.812-8.818
								c-0.543-1.173-1.439-2.22-2.557-2.883c-1.568-0.93-2.95-0.268-4.518-0.71c-2.512-0.709-1.344-3.959-2.194-5.747
								c-0.548-1.153-1.453-2.095-2.483-2.832c-3.542-2.534-8.254-2.133-12.086-4.049C118.956,72.819,118.691,73.262,118.991,73.424
								L118.991,73.424z"/>
						</g>
					</g>
					<g style="opacity:0.25;">
						<g>
							<path style="fill:#FFFFFF;" d="M111.503,75.646c2.309,1.032,4.629,2.043,6.928,3.097c2.469,1.132,5.275,2.488,6.315,5.186
								c0.521,1.351,0.201,2.245,0.095,3.586c-0.045,0.569-0.088,0.977,0.182,1.513c0.646,1.285,2.144,1.451,3.417,1.327
								c1.335-0.13,1.393-2.156,0-2.126c-2.062,0.045-1.113-2.719-1.59-4.229c-0.519-1.642-1.641-3.029-2.979-4.079
								c-3.343-2.623-8.039-3.775-11.946-5.276C111.351,74.424,110.936,75.393,111.503,75.646L111.503,75.646z"/>
						</g>
					</g>
					<g style="opacity:0.25;">
						<g>
							<path style="fill:#FFFFFF;" d="M94.891,88.593c-0.58,3.392-0.828,7.36,2.377,9.612c1.145,0.804,2.244-0.892,1.418-1.838
								c-1.858-2.13-2.936-4.769-2.91-7.654C95.782,88.219,94.979,88.08,94.891,88.593L94.891,88.593z"/>
						</g>
					</g>
					<g style="opacity:0.25;">
						<g>
							<path style="fill:#FFFFFF;" d="M107.344,85.511c0.925,0.916,1.63,1.905,1.398,3.275c-0.172,1.013-0.662,1.811-1.463,2.447
								c-1.086,0.862,0.458,2.422,1.534,1.534c1.252-1.033,1.822-2.645,1.649-4.243c-0.202-1.874-1.242-2.614-2.715-3.536
								C107.425,84.787,107.077,85.247,107.344,85.511L107.344,85.511z"/>
						</g>
					</g>
					<g style="opacity:0.25;">
						<g>
							<path style="fill:#FFFFFF;" d="M85.723,65.961c-0.811-2.706-0.836-5.728,2.641-6.065c0.871-0.084,2.298-0.178,3.128,0.171
								c1.326,0.559,0.634,2.081,0.909,3.19c0.228,0.92,1.361,0.894,1.845,0.241c1.1-1.481,0.741-3.974-0.681-5.127
								c-1.402-1.136-3.604-1.044-5.282-0.728c-1.69,0.318-3.247,1.173-3.935,2.817c-0.792,1.892,0.019,3.898,0.712,5.682
								C85.217,66.546,85.853,66.394,85.723,65.961L85.723,65.961z"/>
						</g>
					</g>
					<g style="opacity:0.25;">
						<g>
							<path style="fill:#FFFFFF;" d="M99.982,58.289c0.142-0.996,1.058-1.606,1.903-2.029c0.447-0.224,0.786-0.397,1.094,0.061
								c0.244,0.364,0.282,0.852,0.408,1.262c0.41,1.338,2.353,0.781,2.081-0.574c-0.318-1.587-1.672-3.31-3.452-2.685
								c-1.531,0.538-3.085,2.159-3.183,3.809C98.794,58.781,99.888,58.947,99.982,58.289L99.982,58.289z"/>
						</g>
					</g>
					<g style="opacity:0.25;">
						<g>
							<path style="fill:#FFFFFF;" d="M111.331,59.498c0.548-0.321,1.164-0.696,1.825-0.643c0.412,0.033,1.021,0.34,0.853,0.817
								c-0.48,1.359,1.943,1.878,2.046,0.277c0.076-1.179-0.738-2.228-1.866-2.537c-1.244-0.341-2.495,0.319-3.503,0.983
								C110.005,58.844,110.615,59.917,111.331,59.498L111.331,59.498z"/>
						</g>
					</g>
					<g style="opacity:0.25;">
						<g>
							<path style="fill:#FFFFFF;" d="M81.64,68.911c-0.946-0.716-2.352-0.516-3.103,0.387c-0.921,1.108-0.7,2.972,0.382,3.905
								c1.034,0.892,2.455-0.492,1.51-1.51c-0.36-0.388-0.795-0.88-0.595-1.462c0.187-0.544,0.873-0.881,1.384-0.597
								C81.702,69.904,82.059,69.229,81.64,68.911L81.64,68.911z"/>
						</g>
					</g>
					<g style="opacity:0.25;">
						<g>
							<path style="fill:#FFFFFF;" d="M77.036,99.103c0.396,1.154,1.208,2.708,0.717,3.884c-0.25,0.6-0.907,1.214-1.277,1.751
								c-0.888,1.289-1.863,2.757-2.194,4.314c-0.549,2.583,1.193,7.058,4.437,5.449c0.861-0.427,0.526-1.618-0.248-1.894
								c-3.781-1.347-0.455-5.667,0.63-7.763c1.334-2.576-0.125-3.664-1.291-6.068C77.603,98.347,76.88,98.648,77.036,99.103
								L77.036,99.103z"/>
						</g>
					</g>
					<g style="opacity:0.25;">
						<g>
							<path style="fill:#FFFFFF;" d="M84.577,94.682c-0.753,1.468-1.517,3.045-1.336,4.744c0.097,0.913,0.434,1.65,0.978,2.374
								c0.954,1.269,2.524,2.017,1.239,3.815c-1.077,1.507-2.187,1.974-2.03,4.115c0.179,2.455,1.928,4.386,2.228,6.82
								c0.177,1.438,2.07,1.444,2.244,0c0.235-1.94-0.775-3.389-1.516-5.103c-0.705-1.63-0.688-2.581,0.494-3.968
								c0.489-0.574,1.046-0.91,1.337-1.643c0.471-1.184,0.098-2.356-0.619-3.349c-0.569-0.786-1.462-1.266-2.028-2.035
								c-1.236-1.682-0.753-3.487,0.019-5.179C85.895,94.599,84.925,94.002,84.577,94.682L84.577,94.682z"/>
						</g>
					</g>
				</g>
				<circle style="opacity:0.5;fill:#FFFFFF;" cx="133.517" cy="118.978" r="0.856"/>
				<circle style="opacity:0.5;fill:#FFFFFF;" cx="103.543" cy="118.978" r="0.856"/>
				<g>
					<g>
						<path style="fill:#C16047;" d="M87.479,119.976c-1.578-2.741-4.629-4.881-7.755-4.402c-1.215,0.186-2.368,0.757-3.252,1.611
							c-1.486,1.435-2.141,3.589-2.049,5.653s0.864,4.047,1.885,5.843c1.912,3.362,5.147,6.38,9.015,6.451
							c1.291,0.024,2.706-0.372,3.409-1.455c0.35-0.539,0.483-1.186,0.61-1.816C89.613,130.511,90.491,125.209,87.479,119.976z"/>
					</g>
					<path style="fill:#B24934;" d="M78.743,120.51c-2.718-0.016-0.961,6.911,1.597,9.729c2.537,2.794,5.951,3.754,5.544-1.01
						C85.478,124.464,82.147,120.53,78.743,120.51z"/>
					<g>
						<g>
							<path style="fill:#81210B;" d="M79.509,120.659c3.509,1.041,5.916,6.616,5.812,9.942c-0.014,0.443,0.67,0.441,0.687,0
								c0.096-2.458-0.21-4.785-1.743-6.78c-1.189-1.547-2.759-2.957-4.665-3.493C79.387,120.268,79.297,120.596,79.509,120.659
								L79.509,120.659z"/>
						</g>
					</g>
					<g>
						<g>
							<path style="fill:#81210B;" d="M84.647,124.926c-0.835-0.784-2.144-0.818-2.648,0.345c-0.642,1.484,0.317,3.652,1.734,4.349
								c0.245,0.12,0.619-0.15,0.419-0.419c-0.636-0.852-1.513-1.702-1.518-2.848c-0.004-0.938,0.654-1.578,1.447-0.862
								C84.462,125.836,85.024,125.281,84.647,124.926L84.647,124.926z"/>
						</g>
					</g>
				</g>
				<g style="opacity:0.45;">
					<g style="opacity:0.65;">
						
							<ellipse transform="matrix(0.9359 -0.3522 0.3522 0.9359 -22.0183 39.1169)" style="fill:#FFFFFF;" cx="96.505" cy="80.076" rx="6.695" ry="3.472"/>
					</g>
					<g style="opacity:0.65;">
						
							<ellipse transform="matrix(0.6962 -0.7178 0.7178 0.6962 -35.8564 88.761)" style="fill:#FFFFFF;" cx="86.944" cy="86.745" rx="3.143" ry="1.63"/>
					</g>
				</g>
			</g>
			<g>
				<path style="fill:#00D0D6;" d="M184.952,217.303c-0.72-4.251-31.038-43.897-37.075-49.51
					c-3.806-3.538-17.195-4.447-17.195-4.447c-2.804,10.871-22.126,8.469-27.962-0.083c-5.161,0.992-18.566,2.079-23.161,7.287
					c-2.788,3.16-10.507,21.54-15.953,34.083c-5.446,12.543-9.618,29.164-7.232,33.312c2.494,4.335,19.36,6.21,30.929,7.194
					c-5.108,12.699-11.42,25.897-11.42,25.897c32.78,15.624,81.491,1.838,81.491,1.838c-1.561-9.914-9.992-39.902-10.774-45.823
					c-0.576-4.359,1.223-28.186,1.223-28.186c4.457,5.03,17.892,17.505,17.892,17.505s-4.087,8.358-7.758,13.411
					c1.955,3.456,4.222,6.723,6.906,9.641C174.942,233.609,185.898,222.887,184.952,217.303z M93.651,225.082
					c-0.177,2.063-0.945,4.125-2.068,7.578c-8.003-3.009-18.303-5.862-18.303-5.862l15.808-26.804
					C89.088,199.994,94.57,214.36,93.651,225.082z"/>
			</g>
			<path style="opacity:0.2;fill:#274470;" d="M184.952,217.303c-0.07-0.412-0.42-1.159-0.996-2.172
				c-2.068,2.73-8.587,9.18-12.124,9.597c-3.41,0.402-3.88-5.149-3.765-6.881c0.235-3.529,4.777-3.501,4.594-4.919
				s-4.165,0.507-6.849-1.418c-6.614-4.744-15.792-15.704-15.792-24.779c-0.44-0.44-1.191,7.103-1.85,6.429
				c-0.707-0.723-1.463-9.863-1.934-9.391c-2.551,3.527,1.555,12.51,0.324,20.905c-0.554,3.778-6.737,6.734-7.36,9.573
				c-0.623,2.839,5.213,40.599,11.592,53.356c-21.603,10.889-42.928,8.739-61.053,1.822c14.58-14.58,22.949-51.892,21.063-54.903
				s-7.615-1.132-10.398-3.451c-3.645-2.734-5.408-14.935-4.496-22.225c-1.121-0.39-3.306,8.595-4.447,8.267
				c-1.141-0.328,4.447-8.141,0-15.281c-2.391,2.391-1.243,9.42-4.832,16.283c-5.986,11.449-14.664,23.937-17.184,24.673
				c-3.243,1.216-12.125,6.975-11.331-2.541c-2.214,8.031-3.192,15.174-1.74,17.698c2.494,4.335,19.36,6.21,30.929,7.194
				c-5.108,12.699-11.42,25.897-11.42,25.897c32.78,15.624,81.491,1.838,81.491,1.838c-1.561-9.914-9.992-39.902-10.774-45.823
				c-0.576-4.359,1.223-28.186,1.223-28.186c4.457,5.03,17.892,17.505,17.892,17.505s-4.087,8.358-7.758,13.411
				c1.955,3.456,4.222,6.723,6.906,9.641C174.942,233.609,185.898,222.887,184.952,217.303z M64.224,234.797
				c-2.931-3.54,3.37-6.754,9.342-8.484l15.522-26.32c0,0,5.482,14.366,4.563,25.088c-0.163,1.899-1.008,15.205-3.148,16.809
				C80.754,243.315,66.143,237.115,64.224,234.797z"/>
			<g>
				<path style="fill:#C16047;" d="M164.236,225.143c-2.634,2.284-4.996,4.256-5.472,4.406c-1.169,0.369-9.857-5.819-11.426-4.681
					c-1.569,1.137,4,5.163,4,5.163s-13.989,1.191-13.179,3.449c0.414,1.154,10.15,0.01,10.335,0.594
					c0.184,0.584-10.982,3.465-9.844,5.034c1.137,1.569,10.182-1.928,9.782-1.159c-0.4,0.769-9.583,4.424-8.307,5.834
					c1.163,1.285,9.813-3.096,9.997-2.512c0.184,0.584-6.154,4.512-5.201,5.496c0.953,0.984,5.843-1.844,7.412-2.981
					c2.258-0.139,5.874-0.97,8.365-1.997c0.682-0.281,5.976-3.144,12.201-6.987C170.307,231.361,167.464,228.107,164.236,225.143z"
					/>
				<path style="fill:#B24934;" d="M140.062,243.246c0.744,1.082,6.762-2.066,10.388-3.483c0.42,0.906-0.313,1.553-0.328,1.507
					c-0.184-0.584-8.834,3.797-9.997,2.512C139.986,243.629,139.977,243.447,140.062,243.246z"/>
				<path style="fill:#B24934;" d="M149.018,232.973c0.114,0.788-0.2,1.032-0.942,0.967c-1.737-0.204-8.551,0.463-9.748-0.28
					C141.81,233.52,145.775,233.274,149.018,232.973z"/>
				<path style="fill:#B24934;" d="M138.577,238.893c3.328-0.481,6.669-1.385,9.843-2.627c1.035,0.428,0.296,0.971-0.139,1.572
					c-1.186-0.007-8.608,2.681-9.631,1.269C138.6,239.039,138.582,238.967,138.577,238.893z"/>
			</g>
			<g style="opacity:0.5;">
				<g>
					<g>
						<path style="fill:#274470;" d="M89.954,183.503c0.341,5.23,0.305,10.254-0.776,15.406c-0.134,0.641,0.828,0.917,0.988,0.272
							c1.273-5.128,0.534-10.497,0.004-15.678C90.157,183.367,89.945,183.362,89.954,183.503L89.954,183.503z"/>
					</g>
				</g>
				<g>
					<g>
						<path style="fill:#274470;" d="M92.659,185.582c-0.023,4.521-1.569,8.23-2.978,12.419c-0.157,0.467,0.531,0.729,0.777,0.328
							c2.288-3.735,2.615-8.475,2.528-12.747C92.982,185.372,92.66,185.371,92.659,185.582L92.659,185.582z"/>
					</g>
				</g>
				<g>
					<g>
						<path style="fill:#274470;" d="M145.13,182.704c1.151,3.507,2.214,7.218,1.998,10.943c-0.27,4.667-1.568,9.365-1.52,14.023
							c0.006,0.542,0.735,0.602,0.909,0.123c0.767-2.113,0.962-4.423,1.244-6.646c0.324-2.559,0.743-5.217,0.722-7.8
							c-0.03-3.685-1.751-7.343-3.023-10.735C145.383,182.411,145.06,182.492,145.13,182.704L145.13,182.704z"/>
					</g>
				</g>
				<g>
					<g>
						<path style="fill:#274470;" d="M148.835,186.679c0.407,4.285-0.968,7.767-2.171,11.76c-0.167,0.553,0.614,0.853,0.911,0.384
							c2.226-3.52,2.151-8.227,1.575-12.186C149.124,186.459,148.818,186.499,148.835,186.679L148.835,186.679z"/>
					</g>
				</g>
				<g>
					<g>
						<path style="fill:#274470;" d="M63.747,232.428c0.971-1.357,2.634-2.916,4.099-3.719c1.745-0.956,3.87-0.686,5.709-1.353
							c0.248-0.09,0.325-0.534,0-0.583c-1.964-0.297-4.67-0.309-6.443,0.681c-1.758,0.982-3.33,2.693-4.225,4.472
							C62.595,232.505,63.376,232.946,63.747,232.428L63.747,232.428z"/>
					</g>
				</g>
				<g>
					<g>
						<path style="fill:#274470;" d="M65.744,226.176c2.286-0.547,5.527-2.108,6.997,0.459c0.351,0.613,1.186,0.075,0.922-0.539
							c-1.434-3.339-5.691-1.1-8.03-0.325C65.377,225.855,65.48,226.239,65.744,226.176L65.744,226.176z"/>
					</g>
				</g>
				<g style="opacity:0.5;">
					<g>
						<path style="fill:#274470;" d="M101.132,164.764c3.959,7.128,11.569,10.528,19.571,9.986
							c4.996-0.339,13.245-2.846,13.433-9.055c0.018-0.59-0.882-0.711-1.028-0.139c-1.387,5.437-8.262,7.373-13.163,7.708
							c-7.234,0.494-14.539-2.439-18.509-8.677C101.315,164.396,101.022,164.565,101.132,164.764L101.132,164.764z"/>
					</g>
				</g>
			</g>
			<g style="opacity:0.65;">
				<g>
					
						<ellipse transform="matrix(0.9359 -0.3522 0.3522 0.9359 -55.1147 41.7324)" style="fill:#FFFFFF;" cx="87.145" cy="172.35" rx="5.683" ry="2.948"/>
				</g>
				<g>
					
						<ellipse transform="matrix(0.5875 -0.8092 0.8092 0.5875 -111.3355 138.1098)" style="fill:#FFFFFF;" cx="79.805" cy="178.264" rx="2.668" ry="1.384"/>
				</g>
			</g>
			<g>
				<polygon style="fill:#FFFFFF;" points="143.14,199.261 128.879,199.261 127.879,192.914 144.14,192.914 				"/>
			</g>
		</g>
		<g>
			<path style="fill:#1B2346;" d="M80.896,191.836l-8.647,34.689c9.789,3.508,16.425,5.589,24.229,9.193
				c1.142,2.173,1.006,3.998,1.006,9.465c-10.877,0.268-18.359-0.838-29.248-2.423l-4.562,18.593l47.762,11.305l16.704-70.023
				L80.896,191.836z"/>
			<path style="fill:#C16047;" d="M96.479,235.719c0,0,0.584,5.278,0,9.486c0,0,5.467,1.449,8.201,3.271
				c2.734,1.822,11.846,3.645,13.669,2.734c1.822-0.911,0.911-2.734,0.911-2.734s1.362-0.277,1.67-1.135
				c0.523-1.456-0.759-2.51-0.759-2.51s2.483-0.332,2.483-2.154s-1.572-2.402-1.572-2.402s1.402-1.201,0.543-3.383
				c-0.668-1.696-7.274-1.555-7.274-1.555s7.62-0.44,6.731-4.175c-3.214-0.143-7.4-0.459-10.024,0
				c-3.156,0.553-4.556,2.734-7.29,3.645C101.035,235.719,96.479,235.719,96.479,235.719z"/>
			<path style="fill:#B24934;" d="M122.654,242.677c0-1.822-1.572-2.402-1.572-2.402s0.602-0.534,0.769-1.52
				c-0.87,0.244-1.788,0.245-2.568,1.008s-0.997,9.147-2.549,8.814c-8.799-1.955-20.193-2.627-19.775-12.866
				c-0.302,0.007-0.481,0.007-0.481,0.007s0.584,5.278,0,9.486c0,0,5.467,1.449,8.201,3.271c2.734,1.822,11.846,3.645,13.669,2.734
				c1.822-0.911,0.911-2.734,0.911-2.734s1.362-0.277,1.67-1.135c0.523-1.456-0.759-2.51-0.759-2.51
				S122.654,244.499,122.654,242.677z"/>
			<path style="fill:#B24934;" d="M114.351,235.337c0,0,6.366-0.376,6.765-3.303c-2.415,1.98-5.248,1.567-8.066,2.071
				C112.934,235.4,114.351,235.337,114.351,235.337z"/>
			<g>
				<polygon style="fill:#3EF2F4;" points="89.502,209.215 111.774,214.446 108.231,229.632 85.621,224.233 				"/>
			</g>
		</g>
	</g>
	<g>
		<path style="fill:#1B2346;" d="M255.065,446.824c3.616,3.847,10.816,3.847,18.75,1.202c5.839-1.947,13.179-11.504,13.179-11.504
			s0.515-5.666-2.06-12.02h-20.09c0,0,0.075,4.659-3.943,8.4C256.321,437.166,251.662,443.203,255.065,446.824z"/>
		<path style="fill:#1B2346;" d="M339.018,446.824c-3.616,3.847-10.816,3.847-18.75,1.202c-5.839-1.947-13.179-11.504-13.179-11.504
			s-0.515-5.666,2.06-12.02h20.09c0,0-0.075,4.659,3.943,8.4C337.761,437.166,342.421,443.203,339.018,446.824z"/>
		<polygon style="fill:#00ADC0;" points="259.778,283.097 261.365,427.211 288.211,427.211 297.915,296.638 305.401,427.211 
			332.308,427.211 337.054,278.991 		"/>
		<path style="opacity:0.2;fill:#274470;" d="M259.778,283.097l0.234,21.294c4.307-2.693,9.049-4.254,14.231-2.311
			c7.959,2.533,15.509,3.834,22.958,4.167l0.714-9.608l0.553,9.64c11.855,0.356,23.502-1.698,36.186-5.157
			c0.553-0.276,1.128-0.551,1.717-0.813l0.683-21.316L259.778,283.097z"/>
		<g>
			<g>
				<path style="fill:#1B2346;" d="M272.129,108.721c-3.026,0.546-5.347,3.67-4.995,6.725s3.322,5.57,6.393,5.413
					c-4.008,6.733,2.769,11.541,7.86,7.718c-0.619,7.394,7.549,9.773,11.317,5.295c1.619,2.515,4.657,4.044,7.642,3.845
					c2.984-0.199,6.332-0.604,7.603-3.311c4.662,6.837,13.585,3.582,12.906-4.667c6.669,4.049,11.517-3.237,7.592-8.401
					c9.02-0.446,9.637-10.486,1.366-13.237L272.129,108.721z"/>
			</g>
			<g>
				<g>
					<path style="fill:#F0C3B3;" d="M312.668,127.179c-0.187,2.628-0.693,13.549,0.113,14.482c0.738,0.855,8.905,3.752,11.826,4.076
						c-1.008,4.897-13.261,20.579-17.988,22.207c-0.261,0.09-0.532,0.174-0.806,0.152c-0.314-0.025-0.6-0.184-0.873-0.342
						c-9.538-5.532-19.636-13.493-24.171-23.543c1.164-0.05,7.845-0.804,8.62-2.463c0.913-1.953,1.524-10.811,0.826-14.559
						L312.668,127.179z"/>
				</g>
				<g style="opacity:0.3;">
					<path style="fill:#D66563;" d="M289.852,140.008c0.778-4.073,0.832-10.293,0.362-12.82l22.454-0.01
						c-0.149,2.096-0.805,10.815-0.057,14.063C306.138,144.476,295.438,142.159,289.852,140.008z"/>
				</g>
			</g>
			<g>
				<g>
					<path style="fill:#F0C3B3;" d="M331.385,96.278c0.276-0.457,0.564-0.91,0.916-1.313c1.128-1.293,2.926-1.966,4.626-1.733
						c1.7,0.233,3.25,1.367,3.987,2.916c0.233,0.49,0.389,1.014,0.506,1.543c0.988,4.448-0.804,9.288-4.153,12.377
						c-1.258,1.16-2.805,2.128-4.513,2.219c-0.74,0.039-1.516-0.102-2.11-0.546c-0.548-0.41-0.892-1.038-1.142-1.676
						C328.607,107.785,328.299,101.383,331.385,96.278z"/>
				</g>
				<g style="opacity:0.3;">
					<path style="fill:#D66563;" d="M339.104,97.986c1.705,1.456-0.237,8.63-2.906,11.091c-1.002,0.924-2.235,1.696-3.596,1.768
						c-0.59,0.031-1.208-0.081-1.681-0.435c-0.437-0.327-0.711-0.827-0.91-1.335C329.299,107.258,335.094,94.562,339.104,97.986z"/>
				</g>
				<g>
					<g>
						<path style="fill:#D66563;" d="M338.462,98.152c-4.471,1.261-6.54,5.977-6.375,10.254c0.015,0.393,0.625,0.395,0.613,0
							c-0.108-3.381,2.28-8.904,5.843-9.959C338.732,98.392,338.652,98.098,338.462,98.152L338.462,98.152z"/>
					</g>
				</g>
				<g>
					<g>
						<path style="fill:#D66563;" d="M333.945,103.267c0.734-0.664,1.432-0.232,1.508,0.713c0.097,1.203-0.79,2.116-1.477,2.988
							c-0.185,0.235,0.04,0.581,0.331,0.428c1.381-0.724,2.342-2.815,1.71-4.296c-0.485-1.139-1.763-1.1-2.577-0.337
							C333.105,103.078,333.606,103.574,333.945,103.267L333.945,103.267z"/>
					</g>
				</g>
			</g>
			<g>
				<path style="fill:#F0C3B3;" d="M272.783,106.502c0.061,3.178,3.194,25.59,23.725,29.503
					c10.503,2.002,22.615-0.865,29.982-10.474c9.124-11.9,7.507-41.45,6.077-46.345c-3.382-11.577-13.815-18.268-27.107-17.793
					C275.007,62.481,272.34,83.31,272.783,106.502z"/>
			</g>
			<g>
				<path style="fill:#FFFFFF;" d="M314.826,114.499c-4.94,1.878-10.572,1.989-16.866,0.198c0,0,1.567,5.006,7.953,5.614
					C312.3,120.919,314.826,114.499,314.826,114.499z"/>
			</g>
			<g>
				<g>
					<path style="fill:#D66563;" d="M314.766,114.282c-5.469,1.917-11.152,1.356-16.652-0.143c-0.409-0.112-0.852,0.286-0.712,0.712
						c1.274,3.882,5.588,6.167,9.501,6.007c3.726-0.152,6.878-2.901,8.246-6.27c0.162-0.399-0.486-0.573-0.646-0.178
						c-1.245,3.066-4.254,5.417-7.599,5.421c-3.338,0.003-7.269-1.921-8.385-5.288c-0.237,0.237-0.475,0.475-0.712,0.712
						c5.753,1.549,11.464,1.533,17.079-0.539C315.154,114.616,315.042,114.185,314.766,114.282z"/>
				</g>
			</g>
			<path style="opacity:0.3;fill:#D66563;" d="M302.099,124.178c0,1.332,1.808,1.822,4.039,1.822c2.231,0,4.039-0.491,4.039-1.822
				s-1.808-1.369-4.039-1.369C303.908,122.809,302.099,122.846,302.099,124.178z"/>
			<g>
				<path style="fill:#1B2346;" d="M285.172,89.967c3.692-0.746,8.368-1.024,11.78-0.333c3.52,0.713,4.689-4.231,1.141-4.629
					c-5.324-0.598-9.49,0.087-13.932,2.265C282.725,87.974,283.582,90.514,285.172,89.967L285.172,89.967z"/>
			</g>
			<g>
				<path style="fill:#1B2346;" d="M327.499,89.056c-3.723-0.57-8.407-0.624-11.782,0.229c-3.482,0.88-4.885-4.003-1.36-4.569
					c5.29-0.851,9.483-0.365,14.024,1.598C329.848,86.949,329.112,89.527,327.499,89.056L327.499,89.056z"/>
			</g>
			<ellipse style="opacity:0.3;fill:#D66563;" cx="323.951" cy="109.614" rx="4.662" ry="3.33"/>
			<ellipse style="opacity:0.3;fill:#D66563;" cx="285.498" cy="109.837" rx="4.662" ry="3.33"/>
			<g>
				<path style="opacity:0.3;fill:#D66563;" d="M308.252,106.507c-3.426-1.55-7.309-0.711-4.615,1.977
					c2.485,2.478,6.408,1.734,7.569-1.429C312.325,104.006,310.239,107.407,308.252,106.507z"/>
				<path style="opacity:0.5;fill:#FFFFFF;" d="M308.279,103.671c-1.029,0-2.343,0.993-1.323,2.011
					c0.941,0.939,2.427,0.657,2.867-0.541C310.247,103.986,309.105,103.671,308.279,103.671z"/>
				<g>
					<g>
						<path style="fill:#D66563;" d="M308.095,97.007c0.633,3.064,4.939,9.949,1.071,11.974c-0.396,0.207-0.124,0.852,0.304,0.722
							c5.877-1.792-0.076-9.627-1.02-12.794C308.382,96.68,308.047,96.775,308.095,97.007L308.095,97.007z"/>
					</g>
				</g>
				<g>
					<g>
						<path style="fill:#D66563;" d="M306.278,108.915c-0.409-0.762-1.048-1.293-1.871-1.55c-0.828-0.258-0.971,1.204-0.152,1.123
							c0.623-0.061,1.201,0.171,1.557,0.699C306.004,109.475,306.444,109.224,306.278,108.915L306.278,108.915z"/>
					</g>
				</g>
			</g>
			<path style="fill:#1B2346;" d="M267.759,76.405c2.608-7.195,8.716-19.764,32.569-20.536c11.514-0.373,23.1,1.808,29.896,12.372
				c6.021,9.359,4.784,24.947,4.784,24.947c-0.339,4.174-1.197,11.493-2.106,7.696c-1.1-4.594,0.45-6.666-0.961-14.853
				s-13.311-15.838-25.353-15.143c-13.551,0.781-26.779,7.906-27.557,18.311c-0.719,9.607,0.722,16.668-1.245,19.855
				c-1.669-1.735-10.514-7.657-11.024-10.01C265.142,91.561,265.151,83.6,267.759,76.405z"/>
			<path style="fill:#00CCDE;" d="M304.803,73.454c22.273-0.004,27.994,10.256,30.046,21.506
				c1.296-11.842,2.812-25.399-3.785-34.364c-9.984-13.567-34.062-18.652-51.883-6.589c-17.831,12.07-15.127,36.203-13.266,45.64
				c0.523,1.57,4,3.116,4.671,4.628C276.004,83.481,282.53,73.458,304.803,73.454z"/>
			<g>
				<g style="opacity:0.65;">
					
						<ellipse transform="matrix(0.9359 -0.3522 0.3522 0.9359 -1.8176 104.9759)" style="fill:#FFFFFF;" cx="287.62" cy="57.484" rx="7.655" ry="3.971"/>
				</g>
				<g style="opacity:0.65;">
					
						<ellipse transform="matrix(0.6962 -0.7178 0.7178 0.6962 37.3126 218.3902)" style="fill:#FFFFFF;" cx="276.688" cy="65.11" rx="3.593" ry="1.864"/>
				</g>
			</g>
			<g>
				<g>
					<path style="fill:#F0C3B3;" d="M274.954,99.214c-1.578-2.74-4.628-4.881-7.754-4.401c-1.215,0.186-2.367,0.757-3.251,1.611
						c-1.486,1.435-2.14,3.589-2.049,5.653c0.092,2.064,0.864,4.047,1.885,5.842c1.912,3.362,5.147,6.379,9.013,6.45
						c1.29,0.024,2.706-0.372,3.408-1.455c0.35-0.539,0.483-1.186,0.61-1.816C277.088,109.747,277.966,104.446,274.954,99.214z"/>
				</g>
				<path style="opacity:0.3;fill:#D66563;" d="M266.22,99.747c-2.717-0.016-0.961,6.91,1.597,9.728
					c2.537,2.793,5.95,3.753,5.543-1.01C272.953,103.702,269.624,99.768,266.22,99.747z"/>
				<g>
					<g>
						<path style="fill:#D66563;" d="M266.99,99.879c3.564,1.054,5.951,6.577,5.843,9.959c-0.013,0.395,0.597,0.393,0.613,0
							c0.166-4.278-1.902-8.992-6.375-10.254C266.881,99.53,266.801,99.823,266.99,99.879L266.99,99.879z"/>
					</g>
				</g>
				<g>
					<g>
						<path style="fill:#D66563;" d="M272.092,104.194c-0.816-0.764-2.089-0.8-2.577,0.337c-0.635,1.479,0.333,3.575,1.71,4.296
							c0.289,0.151,0.517-0.191,0.331-0.428c-0.687-0.872-1.573-1.784-1.477-2.988c0.075-0.936,0.769-1.382,1.508-0.713
							C271.927,105.005,272.429,104.51,272.092,104.194L272.092,104.194z"/>
					</g>
				</g>
			</g>
			<g>
				<g>
					<g>
						<path style="fill:#1B2346;" d="M316.7,101.839c0.374-2.008,2.145-3.338,4.148-3.385c2.3-0.055,3.122,1.592,4.144,3.312
							c0.261,0.439,0.845,0.208,0.893-0.242c0.304-2.834-2.607-4.836-5.192-4.633c-2.676,0.21-4.314,2.344-4.347,4.901
							C316.344,101.989,316.662,102.043,316.7,101.839L316.7,101.839z"/>
					</g>
				</g>
			</g>
			<g>
				<g>
					<g>
						<path style="fill:#1B2346;" d="M296.327,101.791c-0.033-2.558-1.672-4.69-4.347-4.901c-2.584-0.204-5.496,1.8-5.192,4.633
							c0.048,0.45,0.632,0.682,0.893,0.242c1.022-1.72,1.844-3.366,4.144-3.312c2.003,0.048,3.774,1.377,4.148,3.385
							C296.011,102.041,296.33,101.991,296.327,101.791L296.327,101.791z"/>
					</g>
				</g>
			</g>
		</g>
		<g>
			<path style="fill:#FFFFFF;" d="M340.073,150.577c-9.334-2.938-23.749-7.487-23.749-7.487
				c-3.717,11.846-20.957,12.162-29.719-0.273c-4.281,1.242-14.118,4.211-22.858,7.404c9.522,33.522,18.054,67.976,42.569,93.366
				C320.455,213.739,330.954,182.738,340.073,150.577z"/>
		</g>
		<g>
			<path style="fill:#18D4DE;" d="M358.978,227.165c-1.7-11.968-2.213-64.111-8.621-70.728c-4.102-4.236-25.336-10.796-29.94-12.21
				c-0.539,3.729-6.549,22.269-18.318,35.361c-13.164-13.093-19.018-31.199-19.895-36.134c-9.666,2.203-26.62,8.226-31.442,13.504
				c-4.822,5.278-11.369,39.901-16.683,71.379c7.861,0.299,20.136-1.975,24.656-3.762c1.009-0.399,1.807-11.468,1.807-11.468
				l-3.004,74.847c32.776,15.622,80.964,1.239,80.964,1.239c-0.222-15.408,1.581-46.185,1.741-63.781
				C347.599,226.428,355.229,228.579,358.978,227.165z"/>
		</g>
		<g>
			<path style="fill:#18D4DE;" d="M268.442,197.959c0.028-0.13,0.047-0.262,0.047-0.401
				C268.475,197.691,268.458,197.826,268.442,197.959z"/>
		</g>
		<path style="opacity:0.2;fill:#274470;" d="M298.416,241.187c6.781,1.685,29.37,13.974,40.78,17.846
			c0.452-12.107,0.966-24.598,1.048-33.622c7.355,1.017,14.985,3.167,18.734,1.753c-0.354-2.495-0.657-6.74-0.973-11.951
			c-1.141,1.351-2.22,2.81-3.213,4.399c-2.877,2.877-7.671,0.959-8.63-0.959c-4.795-5.753,0-13.425,1.918-19.178
			c-2.877,0-3.836,4.795-4.795,3.836c-4.795-8.63,0-19.178-6.712-27.809c-6.712,18.219,5.753,36.439-2.877,54.658
			c-22.055-3.836-44.11-10.548-67.124-5.753c-0.944-8.497,0.899-17.922,1.871-26.449c-0.359,1.66-2.83,2.615-2.83,4.393
			c-6.712-5.753-1.918-21.096-6.712-19.178c-10.548,3.836-0.959,25.891-9.589,34.521c-2.367,2.959-8.022,4.086-14.033,3.619
			c-0.405,2.349-0.806,4.695-1.199,7.023c7.861,0.299,20.136-1.975,24.656-3.762c1.009-0.399,1.807-11.468,1.807-11.468
			l-1.587,39.552C273.61,244.849,291.635,239.502,298.416,241.187z"/>
		<g style="opacity:0.65;">
			<g>
				
					<ellipse transform="matrix(0.9359 -0.3522 0.3522 0.9359 -39.0028 102.8539)" style="fill:#FFFFFF;" cx="263.195" cy="158.627" rx="6.695" ry="3.472"/>
			</g>
			<g>
				
					<ellipse transform="matrix(0.6962 -0.7178 0.7178 0.6962 -41.606 232.2758)" style="fill:#FFFFFF;" cx="253.635" cy="165.296" rx="3.143" ry="1.63"/>
			</g>
		</g>
		<g style="opacity:0.25;">
			<g>
				<g>
					<path style="fill:#094370;" d="M336.898,179.655c1.335,7.32,1.671,14.904,2.036,22.323c0.196,3.984,0.334,7.971,0.393,11.96
						c0.048,3.254-0.317,6.624-0.085,9.86c0.048,0.664,1.087,0.906,1.236,0.167c0.602-2.986,0.257-6.386,0.188-9.413
						c-0.098-4.31-0.342-8.619-0.657-12.918c-0.542-7.392-1.196-14.83-2.626-22.112C337.32,179.203,336.84,179.339,336.898,179.655
						L336.898,179.655z"/>
				</g>
			</g>
			<g>
				<g>
					<path style="fill:#094370;" d="M343.083,183.087c-1.26,6.67-2.618,13.323-4.023,19.964c-0.167,0.788,1.052,1.121,1.206,0.333
						c1.309-6.677,2.474-13.377,3.546-20.096C343.889,182.815,343.175,182.603,343.083,183.087L343.083,183.087z"/>
				</g>
			</g>
			<g>
				<g>
					<path style="fill:#094370;" d="M262.442,188.522c-1.104,8.13-2.616,16.409-2.989,24.607c-0.033,0.731,1.158,0.913,1.295,0.175
						c1.497-8.06,1.641-16.586,1.849-24.762C262.599,188.457,262.454,188.433,262.442,188.522L262.442,188.522z"/>
				</g>
			</g>
			<g>
				<g>
					<path style="fill:#094370;" d="M258.684,192.278c0.336,4.831-1.489,11.227,1.24,15.583c0.322,0.514,1.034,0.165,0.938-0.395
						c-0.48-2.8-1.091-5.389-1.206-8.257c-0.094-2.344-0.23-4.661-0.582-6.983C259.041,192.005,258.669,192.055,258.684,192.278
						L258.684,192.278z"/>
				</g>
			</g>
		</g>
		<path style="fill:#F0C3B3;" d="M251.663,244.991c5.447,4.032,52.496-18.499,59.448-22.158c6.952-3.659,32.971,3.363,32.971,3.363
			s-2.018-15.053-5.8-17.807c-3.782-2.753-22.671-1.051-26.596-0.302s-47.273,12.574-47.273,12.574l-18.866,2.663
			C245.546,223.325,244.031,239.341,251.663,244.991z"/>
		<g>
			<path style="fill:#009EB2;" d="M344.082,226.197c0,0-2.018-15.053-5.8-17.807c-3.782-2.753-22.671-1.051-26.596-0.302
				c-0.455,0.087-1.443,0.324-2.827,0.672c0.321,4.747,1.549,9.403,3.842,13.492C321.341,220.06,344.082,226.197,344.082,226.197z"
				/>
		</g>
		<path style="opacity:0.3;fill:#D66563;" d="M338.583,208.643c0.938,4.294,1.565,7.747-0.564,8.176
			c-26.91,0.669-49.475,11.139-73.823,18.647c-8.108,2.29-14.147-4.383-13.12-12.92l-5.53,0.781c0,0-1.515,16.016,6.116,21.665
			c5.447,4.032,52.496-18.499,59.448-22.158c6.952-3.659,32.971,3.363,32.971,3.363S342.17,211.948,338.583,208.643z"/>
		<g>
			<path style="fill:#F0C3B3;" d="M343.679,248.792c-5.629,3.775-51.58-20.917-58.354-24.894
				c-6.775-3.978-28.506-7.338-28.506-7.338s2.035-8.352,10.652-10.036c8.617-1.684,14.078,1.687,17.964,2.618
				s46.638,14.756,46.638,14.756l18.722,3.537C350.795,227.435,351.565,243.503,343.679,248.792z"/>
			<g>
				<path style="fill:#009EB2;" d="M288.265,209.956c-1.386-0.418-2.376-0.705-2.83-0.814c-3.887-0.93-9.347-4.302-17.964-2.618
					c-8.617,1.684-10.652,10.036-10.652,10.036s10.173,1.574,18.769,3.841C276.315,214.43,281.223,210.157,288.265,209.956z"/>
			</g>
			<path style="opacity:0.3;fill:#D66563;" d="M348.158,226.937c-6.645,11.276-18.721,14.816-32.682,7.06
				c-17.26-10.548-34.521-19.178-55.617-21.096c-0.423,0-0.286-0.749-0.166-1.749c-2.198,2.661-2.875,5.409-2.875,5.409
				s21.732,3.36,28.506,7.338c6.775,3.978,52.726,28.67,58.355,24.894c7.886-5.289,7.116-21.358,7.116-21.358L348.158,226.937z"/>
		</g>
		<g>
			<polygon style="fill:#FFFFFF;" points="330.339,191.717 316.079,191.717 315.079,185.369 331.339,185.369 			"/>
		</g>
	</g>
	<g>
		<g>
			<g>
				<path style="fill:#094370;" d="M352.539,196.1c-2.996-17.827,1.484-83.616,2.246-92.071
					c1.722-19.099,15.849-31.069,32.81-27.818c16.962,3.251,21.427,18.788,22.064,32.78c0.262,5.76,2.264,64.485-0.965,85.039
					C406.965,205.039,355.673,214.748,352.539,196.1z"/>
			</g>
			<g style="opacity:0.25;">
				<g>
					<path style="fill:#FFFFFF;" d="M382.29,86.611c0.021-4.32-5.092-9.891-9.344-6.315c-0.386,0.324,0.11,0.935,0.531,0.688
						c3.842-2.263,7.82,1.813,7.945,5.627C381.44,87.168,382.288,87.172,382.29,86.611L382.29,86.611z"/>
				</g>
			</g>
			<g style="opacity:0.25;">
				<g>
					<path style="fill:#FFFFFF;" d="M376.207,87.646c-2.115-6.698-10.061-4.308-13.753-0.42c-0.379,0.399,0.183,0.932,0.594,0.594
						c3.47-2.853,10.156-6.053,12.383,0.04C375.606,88.339,376.365,88.146,376.207,87.646L376.207,87.646z"/>
				</g>
			</g>
			<g style="opacity:0.25;">
				<g>
					<path style="fill:#FFFFFF;" d="M369.946,89.782c-6.016-1.806-10.654,3.3-12.293,8.582c-0.151,0.488,0.566,0.657,0.748,0.206
						c1.902-4.716,5.541-9.773,11.384-8.204C370.162,90.467,370.319,89.894,369.946,89.782L369.946,89.782z"/>
				</g>
			</g>
			<g style="opacity:0.25;">
				<g>
					<path style="fill:#FFFFFF;" d="M387.069,86.548c1.472-3.207,0.543-6.967-2.643-8.714c-0.657-0.36-1.194,0.583-0.582,0.996
						c2.408,1.624,3.47,4.424,2.303,7.179C385.885,86.629,386.779,87.18,387.069,86.548L387.069,86.548z"/>
				</g>
			</g>
			<g style="opacity:0.25;">
				<g>
					<path style="fill:#FFFFFF;" d="M391.222,79.244c0.11,2.247-0.385,4.29-1.365,6.303c-0.284,0.583,0.562,1.095,0.879,0.514
						c1.141-2.092,1.572-4.45,1.397-6.817C392.091,78.665,391.193,78.653,391.222,79.244L391.222,79.244z"/>
				</g>
			</g>
			<g style="opacity:0.25;">
				<g>
					<path style="fill:#FFFFFF;" d="M393.496,86.874c1.28-2.871,4.085-3.944,7.05-3.075c0.658,0.193,0.881-0.759,0.276-1.002
						c-3.365-1.351-6.872,0.476-8.224,3.699C392.385,87.004,393.27,87.382,393.496,86.874L393.496,86.874z"/>
				</g>
			</g>
			<g style="opacity:0.25;">
				<g>
					<path style="fill:#FFFFFF;" d="M396.461,88.289c2.229-1.508,4.743-0.982,6.713,0.654c0.344,0.286,0.993-0.1,0.676-0.522
						c-1.808-2.413-5.496-2.591-7.85-0.919C395.529,87.838,395.97,88.621,396.461,88.289L396.461,88.289z"/>
				</g>
			</g>
			<g>
				<path style="fill:#FFC5B6;" d="M395.93,162.776c-0.178,2.5-0.659,12.889,0.107,13.777c0.702,0.813,8.471,1.889,11.25,2.198
					c-0.959,4.659-2.166,9.333-4.489,13.484c-2.323,4.151-5.886,7.773-10.383,9.321c-0.248,0.085-0.506,0.165-0.767,0.145
					c-0.299-0.023-0.571-0.175-0.831-0.326c-9.074-5.263-16.44-12.836-20.754-22.397c1.107-0.048,7.463-0.765,8.2-2.343
					c0.868-1.858,1.45-10.284,0.785-13.85L395.93,162.776z"/>
			</g>
			<g style="opacity:0.3;">
				<path style="fill:#F26666;" d="M378.861,174.083c0.487-3.329,0.681-8.651,0.188-11.298l16.881-0.009
					c-0.142,1.994-0.476,9-0.217,12.209C390.061,176.272,384.326,175.736,378.861,174.083z"/>
			</g>
			<g>
				<g>
					<path style="fill:#FFC5B6;" d="M415.108,134.246c0.263-0.435,0.537-0.866,0.871-1.249c1.073-1.23,2.784-1.871,4.401-1.648
						c1.617,0.222,3.091,1.3,3.793,2.774c0.222,0.466,0.37,0.964,0.482,1.468c0.94,4.231-0.765,8.835-3.951,11.774
						c-1.196,1.104-2.668,2.025-4.293,2.111c-0.704,0.037-1.442-0.097-2.007-0.519c-0.522-0.39-0.849-0.988-1.087-1.594
						C412.466,145.193,412.172,139.103,415.108,134.246z"/>
				</g>
				<g style="opacity:0.3;">
					<path style="fill:#F26666;" d="M422.452,135.872c1.622,1.385-0.226,8.209-2.764,10.551c-0.953,0.879-2.126,1.613-3.421,1.682
						c-0.561,0.03-1.149-0.077-1.599-0.414c-0.416-0.311-0.676-0.787-0.866-1.27C413.124,144.692,418.636,132.614,422.452,135.872z"
						/>
				</g>
				<g>
					<g>
						<path style="fill:#F26666;" d="M421.84,136.029c-4.263,1.203-6.238,5.672-6.073,9.755c0.016,0.385,0.613,0.388,0.601,0
							c-0.096-3.204,2.172-8.474,5.55-9.474C422.097,136.257,422.022,135.978,421.84,136.029L421.84,136.029z"/>
					</g>
				</g>
				<g>
					<g>
						<path style="fill:#F26666;" d="M417.554,140.905c0.765-0.692,1.431-0.081,1.426,0.839c-0.006,1.12-0.86,1.877-1.446,2.724
							c-0.163,0.236,0.144,0.45,0.355,0.355c1.355-0.609,2.224-2.724,1.639-4.094c-0.466-1.091-1.692-1.055-2.473-0.324
							C416.722,140.718,417.218,141.209,417.554,140.905L417.554,140.905z"/>
					</g>
				</g>
			</g>
			<g>
				<path style="fill:#FFC5B6;" d="M357.921,143.061c1.036,17.072,18.844,27.262,33.096,26.569
					c14.252-0.693,23.369-14.732,24.424-25.43c0.964-9.772,0.825-19.65-0.192-23.131c-3.217-11.013-11.293-20.461-23.937-20.009
					C362.343,102.095,356.585,121.036,357.921,143.061z"/>
			</g>
			<g style="opacity:0.3;">
				<path style="fill:#F26666;" d="M364.916,127.162c-3.302,5.626-3.822,17.444-4.77,15.697
					c-5.611-10.346,2.196-40.764,31.166-41.799c12.644-0.452,20.72,8.996,23.937,20.009c0.922,3.156,0.791,7.618,1.207,12.412
					c-1.5-1.223-1.993-4.815-3.119-6.408C400.007,128.834,377.611,129.909,364.916,127.162z"/>
			</g>
			<g>
				<g>
					<path style="fill:#FFC5B6;" d="M360.097,137.039c-1.501-2.607-4.403-4.643-7.376-4.187c-1.155,0.177-2.252,0.72-3.093,1.532
						c-1.414,1.365-2.036,3.414-1.949,5.377s0.822,3.849,1.793,5.558c1.819,3.198,4.896,6.068,8.574,6.136
						c1.228,0.023,2.574-0.354,3.242-1.384c0.333-0.513,0.46-1.128,0.58-1.727C362.127,147.06,362.962,142.017,360.097,137.039z"/>
				</g>
				<path style="opacity:0.3;fill:#F26666;" d="M351.788,137.547c-2.585-0.016-0.914,6.574,1.519,9.254
					c2.413,2.657,5.66,3.57,5.273-0.961C358.193,141.309,355.026,137.566,351.788,137.547z"/>
				<g>
					<g>
						<path style="fill:#F26666;" d="M352.521,137.672c3.378,0.999,5.646,6.27,5.55,9.474c-0.012,0.387,0.585,0.386,0.601,0
							c0.165-4.084-1.809-8.551-6.073-9.755C352.417,137.34,352.341,137.619,352.521,137.672L352.521,137.672z"/>
					</g>
				</g>
				<g>
					<g>
						<path style="fill:#F26666;" d="M357.384,141.768c-0.782-0.733-2.004-0.766-2.473,0.324c-0.589,1.368,0.288,3.486,1.639,4.094
							c0.211,0.095,0.519-0.118,0.355-0.355c-0.586-0.847-1.441-1.606-1.446-2.724c-0.005-0.919,0.655-1.537,1.426-0.839
							C357.22,142.57,357.717,142.08,357.384,141.768L357.384,141.768z"/>
					</g>
				</g>
			</g>
			<g>
				<g>
					<path style="fill:#F26666;" d="M395.448,149.135c-2.534,2.143-8.492,1.919-11.08,0.097c-0.306-0.215-0.693,0.28-0.403,0.522
						c3.231,2.702,8.737,2.611,11.786-0.316C395.952,149.244,395.655,148.96,395.448,149.135L395.448,149.135z"/>
				</g>
			</g>
			<path style="opacity:0.3;fill:#F26666;" d="M387.644,155.234c0,0.821,1.115,1.487,2.491,1.487s2.491-0.666,2.491-1.487
				c0-0.821-1.115-0.844-2.491-0.844S387.644,154.413,387.644,155.234z"/>
			<g>
				<g>
					<path style="fill:#094370;" d="M411.563,126.53c-2.797-2.934-6.465-3.805-10.37-2.799c-1.883,0.485-1.041,3.515,0.801,2.906
						c2.62-0.866,6.278-0.939,8.482,0.98C411.218,128.261,412.253,127.254,411.563,126.53L411.563,126.53z"/>
				</g>
			</g>
			<g>
				<g>
					<path style="fill:#094370;" d="M369.048,127.825c2.907-2.17,7.637-2.154,10.969-1.1c1.85,0.585,2.684-2.423,0.801-2.906
						c-4.484-1.151-9.186-0.267-12.701,2.799C367.468,127.183,368.344,128.351,369.048,127.825L369.048,127.825z"/>
				</g>
			</g>
			<ellipse style="opacity:0.3;fill:#F26666;" cx="407.218" cy="148.136" rx="6.119" ry="4.371"/>
			<ellipse style="opacity:0.5;fill:#FFFFFF;" cx="406.93" cy="146.375" rx="2.466" ry="1.761"/>
			<ellipse style="opacity:0.3;fill:#F26666;" cx="372.028" cy="147.554" rx="6.119" ry="4.371"/>
			<g>
				<path style="opacity:0.3;fill:#F26666;" d="M390.674,140.977c-3.03-1.294-6.393-0.214-3.83,2.342
					c2.364,2.358,6.096,1.649,7.2-1.36C395.109,139.06,392.583,141.792,390.674,140.977z"/>
				<path style="opacity:0.5;fill:#FFFFFF;" d="M390.701,137.741c-0.979,0-2.229,0.945-1.258,1.913
					c0.895,0.893,2.309,0.625,2.727-0.515C392.573,138.041,391.487,137.741,390.701,137.741z"/>
				<g>
					<g>
						<path style="fill:#F26666;" d="M390.928,135.812c2.566,1.152,4.298,5.343,1.17,6.968c-0.406,0.211-0.116,0.802,0.3,0.712
							c1.947-0.426,2.73-2.414,2.367-4.239c-0.385-1.935-1.889-3.199-3.701-3.761C390.878,135.434,390.744,135.729,390.928,135.812
							L390.928,135.812z"/>
					</g>
				</g>
				<g>
					<g>
						<path style="fill:#F26666;" d="M389.357,142.729c-0.396-0.733-0.976-1.241-1.777-1.488c-0.806-0.248-0.95,1.168-0.148,1.096
							c0.578-0.052,1.147,0.157,1.481,0.652C389.097,143.261,389.516,143.023,389.357,142.729L389.357,142.729z"/>
					</g>
				</g>
			</g>
			<g>
				<path style="fill:#094370;" d="M418.232,104.152c-8.251-15.499-21.009-18.844-31.962-18.489
					c-22.692,0.735-32.392,16.315-34.873,23.16c-2.481,6.845-4.586,17.895-1.769,25.562c6.874-3.609,9.896,2.56,10.74,3.147
					c-0.823-4.929-0.257-10.29,2.74-14.442c6.665,0.859,46.288,0.993,50.903-0.101c0,0,2.082,2.467,1.968,10.009
					c1.812-1.692,2.844-1.605,4.033-1.692C420.011,131.306,423.207,113.496,418.232,104.152z"/>
			</g>
			<g>
				<g style="opacity:0.25;">
					<g>
						<path style="fill:#FFFFFF;" d="M382.221,98.709c-5.851,5.33-10.806,12.376-8.496,20.748c0.168,0.608,1.184,0.512,1.133-0.153
							c-0.578-7.55,2.126-15.023,7.615-20.343C382.638,98.8,382.39,98.555,382.221,98.709L382.221,98.709z"/>
					</g>
				</g>
				<g style="opacity:0.25;">
					<g>
						<path style="fill:#FFFFFF;" d="M387.419,97.149c0.468,7.038-0.314,14.061-0.125,21.088c0.018,0.68,1.134,0.903,1.245,0.168
							c1.06-7.012,0.119-14.267-0.642-21.257C387.863,96.85,387.398,96.838,387.419,97.149L387.419,97.149z"/>
					</g>
				</g>
				<g style="opacity:0.25;">
					<g>
						<path style="fill:#FFFFFF;" d="M395.551,96.84c5.705,6.876,5.468,15.392,5.961,23.792c0.047,0.806,1.204,0.807,1.253,0
							c0.511-8.425-1.275-17.576-6.982-24.023C395.641,96.449,395.418,96.68,395.551,96.84L395.551,96.84z"/>
					</g>
				</g>
				<g style="opacity:0.25;">
					<g>
						<path style="fill:#FFFFFF;" d="M401.495,98.732c3.913,2.653,6.858,6.588,8.331,11.074c1.136,3.462,0.882,6.68,1.098,10.212
							c0.04,0.658,0.97,0.821,1.168,0.158c1.056-3.541-0.115-8.258-1.451-11.564c-1.795-4.44-4.905-7.739-8.962-10.195
							C401.477,98.297,401.304,98.603,401.495,98.732L401.495,98.732z"/>
					</g>
				</g>
				<g style="opacity:0.25;">
					<g>
						<path style="fill:#FFFFFF;" d="M373.801,100.981c-3.05,2.561-6.042,4.813-8.17,8.252c-1.801,2.91-3.059,6.393-3.113,9.836
							c-0.01,0.616,0.997,0.788,1.105,0.15c0.585-3.478,1.328-6.707,3.129-9.799c1.909-3.279,4.715-5.504,7.468-8.02
							C374.503,101.14,374.088,100.74,373.801,100.981L373.801,100.981z"/>
					</g>
				</g>
			</g>
			<ellipse style="opacity:0.5;fill:#FFFFFF;" cx="372.028" cy="145.961" rx="2.466" ry="1.761"/>
			<path style="fill:#111F44;" d="M373.35,134.521c1.046-0.044,1.881,0.25,2.543,0.756c0.041-0.007,0.093,0.01,0.138,0.013
				c0.014-0.009,0.016-0.01,0.039-0.026c0.088-0.061,0.199-0.098,0.29-0.157c0.18-0.117,0.336-0.272,0.497-0.412
				c0.392-0.342,0.615-0.706,0.754-1.21c0.057-0.207,0.35-0.117,0.316,0.087c-0.105,0.612-0.201,1.363-0.511,1.908
				c-0.132,0.232-0.341,0.547-0.592,0.796c0.149,0.22,0.651,0.56,0.821,0.569c0.014-0.009,0.016-0.01,0.039-0.026
				c0.088-0.061,0.199-0.098,0.29-0.157c0.18-0.117,0.336-0.272,0.497-0.412c0.392-0.342,0.615-0.706,0.754-1.21
				c0.057-0.207,0.35-0.117,0.316,0.087c-0.105,0.611-0.201,1.363-0.511,1.908c-0.25,0.439-0.775,1.179-1.343,1.187
				c0.12,0.442,0.207,0.897,0.261,1.352c0.061,0.51-0.759,0.6-0.884,0.12c-0.468-1.801-1.825-4.092-4.077-3.268
				c-1.345,0.493-2.055,1.818-2.822,2.919c-0.219,0.314-0.681,0.194-0.709-0.192C369.296,136.935,371.052,134.618,373.35,134.521z"
				/>
			<path style="fill:#111F44;" d="M405.004,134.521c1.046-0.044,1.881,0.25,2.543,0.756c0.041-0.007,0.093,0.01,0.138,0.013
				c0.014-0.009,0.016-0.01,0.039-0.026c0.088-0.061,0.199-0.098,0.29-0.157c0.18-0.117,0.336-0.272,0.497-0.412
				c0.392-0.342,0.615-0.706,0.754-1.21c0.057-0.207,0.35-0.117,0.315,0.087c-0.105,0.612-0.201,1.363-0.511,1.908
				c-0.132,0.232-0.341,0.547-0.592,0.796c0.149,0.22,0.651,0.56,0.821,0.569c0.014-0.009,0.016-0.01,0.039-0.026
				c0.088-0.061,0.199-0.098,0.29-0.157c0.18-0.117,0.336-0.272,0.497-0.412c0.392-0.342,0.615-0.706,0.754-1.21
				c0.057-0.207,0.35-0.117,0.315,0.087c-0.105,0.611-0.201,1.363-0.511,1.908c-0.25,0.439-0.775,1.179-1.343,1.187
				c0.12,0.442,0.207,0.897,0.261,1.352c0.061,0.51-0.759,0.6-0.884,0.12c-0.468-1.801-1.825-4.092-4.077-3.268
				c-1.345,0.493-2.055,1.818-2.822,2.919c-0.219,0.314-0.681,0.194-0.709-0.192C400.95,136.935,402.706,134.618,405.004,134.521z"
				/>
			<g style="opacity:0.45;">
				<g style="opacity:0.65;">
					
						<ellipse transform="matrix(0.9359 -0.3522 0.3522 0.9359 -9.7355 136.6265)" style="fill:#FFFFFF;" cx="370.654" cy="95.071" rx="6.695" ry="3.472"/>
				</g>
				<g style="opacity:0.65;">
					
						<ellipse transform="matrix(0.6962 -0.7178 0.7178 0.6962 36.6581 290.1054)" style="fill:#FFFFFF;" cx="361.094" cy="101.741" rx="3.143" ry="1.63"/>
				</g>
			</g>
		</g>
		<path style="fill:#FFC5B6;" d="M419.417,277.51l-57.493-3.869c0,0-5.604,8.599-6.477,18.174
			c-0.475,7.885,0.283,15.871,1.666,24.167c3.436,15.808,8.919,26.645,3.292,46.736c-6.447,23.023-1.258,39.765,1.974,71.091
			c0,0,0.735,5.135-5,18.086c-2.903,6.555,0.328,14.323,2.659,14.657c2.332,0.334,9.073-4.57,10.722-8.827
			c1.649-4.257,1.066-14.221,1.262-17.743c0.446-8.027,4.619-31.522,7.023-52.628c1.145-10.051,0.405-20.301,1.437-26.698
			c3.565-22.091,7.198-38.882,10.191-61.368c0.294,14.905,0.154,51.022,1.342,64.048c0.412,4.517-1.1,13.109-0.753,23.063
			c0.653,18.752,3.013,42.338,2.883,52.623c-0.045,3.528-1.346,14.445,0.303,18.702c1.649,4.257,8.39,9.161,10.722,8.827
			c2.332-0.334,5.156-7.937,2.659-14.657c-2.311-6.22-5.478-6.789-4.684-19.3c0.794-12.511,13.936-41.296,9.124-67.924
			c-3.239-17.921,9.817-43.195,10.138-56.249C422.941,286.683,419.417,277.51,419.417,277.51z"/>
		<path style="opacity:0.3;fill:#F26666;" d="M411.983,362.684c-2.014-17.76,10.113-41.682,10.422-54.261
			c0.535-21.74-2.989-30.913-2.989-30.913l-57.493-3.869c0,0-5.604,8.599-6.477,18.174c-0.475,7.885,0.283,15.871,1.666,24.167
			c3.137,14.432,7.975,24.725,4.513,41.695c6.637-2.008,13.55-0.494,18.763,3.64c0.031-0.221,0.058-0.448,0.092-0.661
			c3.565-22.091,7.198-38.882,10.191-61.368c0.288,14.608,0.16,49.575,1.273,63.227
			C398.126,358.628,405.058,359.891,411.983,362.684z"/>
		<path style="fill:#1B2346;" d="M357.854,450.681c-0.166,0.405-0.325,0.81-0.475,1.215c-2.497,6.72,0.328,14.323,2.659,14.657
			c2.332,0.334,9.073-4.57,10.722-8.827c0.721-1.861,0.973-4.816,1.063-7.846C368.021,458.367,357.885,457.647,357.854,450.681z"/>
		<g>
			<path style="fill:#1B2346;" d="M407.353,450.681c0.166,0.405,0.325,0.81,0.475,1.215c2.497,6.72-0.328,14.323-2.659,14.657
				c-2.332,0.334-9.073-4.57-10.722-8.827c-0.721-1.861-0.973-4.816-1.063-7.846C397.186,458.367,407.322,457.647,407.353,450.681z"
				/>
		</g>
		<path style="fill:#094370;" d="M422.406,308.423c0.535-21.74-2.989-30.913-2.989-30.913l-57.493-3.869
			c0,0-5.604,8.599-6.477,18.174c-0.475,7.885-0.628,15.871,0.754,24.167c2.53,11.64,3.053,23.277,2.053,34.643
			c6.673,2.289,49.734,3.635,56.526,2.642C416.456,337.186,422.148,318.883,422.406,308.423z"/>
		<g>
			<path style="fill:#B6B6B6;" d="M411.623,179.188c-5.934-1.323-11.803-1.539-11.803-1.539c-2.667,10.34-15.58,14.035-24.764,0.563
				c-2.064,0-5.16,0.376-8.486,1.082c6.316,24.41,12.839,49.511,22.743,72.922C394.107,245.504,407.204,196.069,411.623,179.188z"/>
		</g>
		<path style="fill:#FFC5B6;" d="M443.411,285.289c-1.763-1.953-3.217-9.389-3.217-9.389l-9.37,2.587c0,0,2.693,6.771,2.389,9.174
			c-0.304,2.403-2.25,5.404-2.33,8.802c-0.08,3.398,1.85,8.587,2.47,9.487c0.62,0.9,5.554,4.15,6.197,4.464
			c0.643,0.315,2.749,0.249,3.123-3.129c0,0,5.105-5.96,5.711-8.82C448.991,295.607,445.173,287.242,443.411,285.289z
			 M435.48,304.647c0.07-0.802-0.231-1.27-0.12-2.232c0.643,0.856,1.609,1.923,1.557,2.189
			C436.885,304.765,436.263,304.41,435.48,304.647z"/>
		<path style="opacity:0.3;fill:#F26666;" d="M440.194,275.9l-9.37,2.587c0,0,2.693,6.771,2.389,9.174
			c-0.304,2.403-2.25,5.404-2.33,8.802c-0.01,0.444,0.015,0.919,0.066,1.41c3.229-5.652,9.78-4.502,17.041-2.842
			c-0.981-3.606-3.31-8.334-4.58-9.741C441.648,283.336,440.194,275.9,440.194,275.9z"/>
		<g>
			<g>
				<path style="fill:#FFFFFF;" d="M426.546,185.398c-3.513-3.162-15.55-6.547-20.753-7.215
					c-4.673,21.23-10.754,42.029-15.522,63.484c-4.583-21.083-12.665-42.166-18.395-63.25c-6.651,0.746-20.998,5.41-24.697,9.603
					c-4.371,4.954-11.763,58.392-11.763,58.392c-2.005,12.569,8.032,22.133,14.385,17.679c1.271-0.891,8.128-32.484,9.175-32.131
					c1.764,20.693-6.025,52.901-7.458,101.584c15.71,10.813,73.655,4.277,73.655,4.277c-0.262-76.826-7.769-80.106-5.033-106.763
					c1.27-0.276,7.842,48.274,9.303,60.121c9.824-1.155,18.625-5.359,18.625-5.359s-4.63-24.432-9.033-48.598
					C434.618,212.973,429.465,188.026,426.546,185.398z"/>
			</g>
			<path style="opacity:0.15;fill:#094370;" d="M411.717,179.394c-1.663-0.423-3.222-0.764-4.533-0.994
				c2.283,11.632,4.438,22.179,6.101,35.46c-3.891,1.073-6.632,1.495-11.412,3.151c3.878,4.252,5.831,5.784,7.925,7.11
				c-5.517,6.103-15.57,18.422-20.118,30.272c-5.229-9.061-14.726-23.878-19.972-32.558c0,0,4.164-3.979,6.502-6.316
				c-4.182-2.32-8.831-4.225-10.019-4.805c0,0,4.329-22.555,4.111-32.155c-0.542,0.054-1.099,0.157-2.543,0.543
				c-1.559,12.303-5.364,32.305-5.364,32.305c1.268,1.556,6.523,5.201,8.698,6.289c-2.47,1.976-5.19,4.207-6.727,6.822
				c0.534,3.885,16.649,29.875,25.801,34.464c7.503-7.255,15.584-21.726,23.178-34.125c1.276-2.084-6.181-3.629-6.622-6.274
				c1.918,0,8.695-0.653,8.695-0.653C418.05,203.891,413.252,193.296,411.717,179.394z"/>
			<path style="opacity:0.15;fill:#094370;" d="M361.504,327.97c4.795-1.918,11.507,0.959,15.343-3.836
				c0.959-2.877-0.959-6.712-0.959-9.589c-7.671,1.918-19.92-5.272-17.043-13.902c1.918-4.795,2.646-27.983,7.138-39.018
				c-3.844-8.197,1.526-16.514,0.063-25.541c-0.571-1.038-1.126-2.059-1.664-3.046c-1.86-3.255-1.462-6.058-0.015-8.52
				c-1.013-7.368-2.056-14.811-3.821-22.165c0-0.959-1.918,2.877-1.918,3.836c-1.918,14.384-2.877,31.644-13.425,39.315
				c-4.252,3.037-6.963-2.392-8.38-8.729c-0.869,5.76-1.405,9.638-1.405,9.638c-2.005,12.569,8.031,22.133,14.385,17.679
				c1.271-0.891,8.128-32.484,9.175-32.131c1.764,20.693-6.025,52.901-7.458,101.584c1.237,0.852,2.738,1.595,4.45,2.243
				C356.723,332.141,358.249,329.191,361.504,327.97z"/>
			<path style="opacity:0.15;fill:#094370;" d="M429.443,291.18c9.824-1.155,18.625-5.359,18.625-5.359s-0.482-2.545-1.28-6.788
				c-4.88,1.503-9.222,1.86-12.407-0.926c-9.589-8.63-1.918-27.809-10.548-42.192c-5.754-8.63,5.753-20.137,0-30.685
				c-5.183,11.847-8.081,23.696-11.339,35.984c0.802,16.988,6.544,52.236,7.503,53.195c0.959,4.795,1.918,10.548-0.959,15.343
				c-4.795,5.753-10.548,2.877-15.343-0.959c-1.918,4.795-4.795,10.548,0,12.466c3.836,2.877,12.466-0.959,14.384,1.918
				c2.752,4.403,1.397,9.753-0.075,15.326c4.437-0.372,7.169-0.68,7.169-0.68c-0.262-76.826-7.769-80.106-5.033-106.763
				C421.41,230.783,427.982,279.333,429.443,291.18z"/>
			<g style="opacity:0.5;">
				<g style="opacity:0.5;">
					<g>
						<path style="fill:#094370;" d="M421.786,203.812c0.475,8.701-0.73,17.062-2.521,25.552c-0.175,0.829,1.061,1.184,1.279,0.353
							c2.189-8.38,2.474-17.302,1.917-25.904C422.432,203.382,421.762,203.377,421.786,203.812L421.786,203.812z"/>
					</g>
				</g>
				<g style="opacity:0.5;">
					<g>
						<path style="fill:#094370;" d="M425.298,211.406c-0.477,5.792-2.704,10.556-4.672,15.907
							c-0.218,0.592,0.664,0.902,0.979,0.413c3.014-4.675,3.812-10.885,4.113-16.32C425.733,211.135,425.32,211.14,425.298,211.406
							L425.298,211.406z"/>
					</g>
				</g>
				<g style="opacity:0.5;">
					<g>
						<path style="fill:#094370;" d="M359.011,202.725c1.304,7.989,1.501,16.03,1.136,24.102c-0.036,0.799,1.213,0.8,1.244,0
							c0.312-8.134-0.484-16.24-1.838-24.251C359.493,202.219,358.954,202.371,359.011,202.725L359.011,202.725z"/>
					</g>
				</g>
				<g style="opacity:0.5;">
					<g>
						<path style="fill:#094370;" d="M363.034,205.582c0.315,4.473,0.167,8.961-0.523,13.395c-0.657,4.223-2.037,8.151-3.117,12.258
							c-0.163,0.621,0.786,1.076,1.075,0.453c3.63-7.818,4.092-17.664,3.337-26.106
							C363.762,205.094,362.999,205.083,363.034,205.582L363.034,205.582z"/>
					</g>
				</g>
				<g style="opacity:0.5;">
					<g>
						<path style="fill:#094370;" d="M369.626,180.504c-0.799,9.997-1.833,20.244-4.073,30.034
							c-0.087,0.382,0.119,0.671,0.462,0.813c3.395,1.413,6.671,2.899,9.819,4.811c-0.089-0.34-0.178-0.681-0.268-1.021
							c-1.628,2.516-3.676,4.485-6.243,6.033c-0.329,0.199-0.519,0.706-0.274,1.047c7.432,10.361,14.118,21.231,19.922,32.587
							c0.261,0.51,1.18,0.566,1.422,0c4.807-11.239,11.389-21.395,19.947-30.147c0.344-0.352,0.273-0.949-0.155-1.2
							c-3.018-1.773-5.545-4.038-7.632-6.847c-0.157,0.385-0.313,0.77-0.47,1.154c3.766-1.386,7.585-2.581,11.469-3.589
							c0.443-0.115,0.603-0.545,0.543-0.957c-1.646-11.3-2.859-22.698-6.458-33.592c-0.122-0.368-0.697-0.216-0.585,0.161
							c3.26,11.019,3.91,22.526,5.543,33.844c0.181-0.319,0.362-0.638,0.543-0.957c-3.885,1.003-7.706,2.193-11.474,3.574
							c-0.426,0.156-0.797,0.713-0.47,1.154c2.248,3.034,4.959,5.469,8.218,7.373c-0.052-0.4-0.103-0.8-0.155-1.2
							c-8.613,8.815-15.637,19.203-20.372,30.593c0.502-0.066,1.003-0.131,1.505-0.197c-5.92-11.296-12.575-22.173-20.022-32.528
							c-0.091,0.349-0.183,0.698-0.274,1.047c2.776-1.678,5.011-3.869,6.76-6.6c0.219-0.343,0.067-0.82-0.268-1.021
							c-2.503-1.506-5.095-2.842-7.808-3.929c-1.339-0.537-1.747-0.26-1.711-2.016c0.017-0.802,0.238-1.641,0.349-2.434
							c0.21-1.504,0.411-3.009,0.6-4.515c0.895-7.138,1.556-14.301,2.081-21.476C370.12,180.2,369.65,180.203,369.626,180.504
							L369.626,180.504z"/>
					</g>
				</g>
				<g style="opacity:0.5;">
					<g>
						<path style="fill:#094370;" d="M390.33,244.114c-0.593,15.954-1.101,31.91-1.641,47.866c-0.53,15.69-1.4,31.379-1.815,47.07
							c-0.029,1.095,1.631,1.081,1.693,0c0.9-15.658,1.109-31.391,1.452-47.07c0.349-15.953,0.544-31.909,0.625-47.866
							C390.645,243.911,390.337,243.912,390.33,244.114L390.33,244.114z"/>
					</g>
				</g>
				<g style="opacity:0.5;">
					<g>
						<path style="fill:#094370;" d="M402.602,295.803c4.809,0.661,9.59,0.881,14.434,0.509c0.606-0.047,2.782-0.438,2.887-0.295
							c0.119,0.163-0.01,0.887-0.016,1.089c-0.038,1.295-0.27,2.552-0.299,3.85c-0.131,5.919-0.138,11.841-0.248,17.761
							c0.277-0.277,0.554-0.554,0.831-0.831c-3.584,0.082-7.166,0.242-10.749,0.356c-1.593,0.051-3.187,0.101-4.78,0.132
							c-0.605,0.012-2.054,0.095-2.269,0.016c0.208,0.274,0.417,0.547,0.625,0.821c-0.295-3.099,0.092-6.406,0.154-9.511
							c0.094-4.693,0.188-9.387,0.317-14.079c0.03-1.078-1.644-1.077-1.675,0c-0.134,4.692-0.234,9.386-0.333,14.079
							c-0.065,3.108-0.454,6.411-0.165,9.511c0.038,0.407,0.244,0.68,0.625,0.821c0.606,0.224,1.485,0.068,2.109,0.06
							c1.598-0.019,3.196-0.068,4.793-0.115c3.784-0.11,7.57-0.214,11.349-0.429c0.443-0.025,0.839-0.36,0.831-0.831
							c-0.119-7.683-0.352-15.4-0.398-23.063c-0.001-0.172-0.16-0.372-0.349-0.349c-5.902,0.711-11.711,0.756-17.624,0.126
							C402.442,295.409,402.391,295.774,402.602,295.803L402.602,295.803z"/>
					</g>
				</g>
				<g style="opacity:0.5;">
					<g>
						<path style="fill:#094370;" d="M402.486,301.753c2.839,0.233,5.692,0.204,8.538,0.2c2.904-0.004,6.264-0.425,9.113,0.204
							c0.725,0.16,0.802-1.008,0.129-0.951c-2.906,0.246-5.967-0.027-8.89,0.011c-2.958,0.039-5.934,0.138-8.89-0.011
							C402.132,301.188,402.139,301.725,402.486,301.753L402.486,301.753z"/>
					</g>
				</g>
				<g style="opacity:0.5;">
					<g>
						<path style="fill:#094370;" d="M358.96,294.967c4.809,0.661,9.59,0.881,14.434,0.509c0.606-0.047,2.782-0.438,2.887-0.295
							c0.119,0.163-0.01,0.887-0.016,1.089c-0.038,1.295-0.27,2.552-0.299,3.85c-0.131,5.919-0.138,11.841-0.248,17.761
							c0.277-0.277,0.554-0.554,0.831-0.831c-3.584,0.082-7.166,0.242-10.749,0.356c-1.593,0.051-3.187,0.101-4.78,0.132
							c-0.605,0.012-2.054,0.095-2.269,0.016c0.208,0.274,0.417,0.547,0.625,0.821c-0.295-3.099,0.092-6.406,0.154-9.511
							c0.094-4.693,0.188-9.387,0.317-14.079c0.03-1.078-1.644-1.077-1.675,0c-0.134,4.692-0.234,9.386-0.333,14.079
							c-0.065,3.108-0.454,6.411-0.165,9.511c0.038,0.407,0.244,0.68,0.625,0.821c0.606,0.224,1.485,0.068,2.109,0.06
							c1.598-0.019,3.196-0.068,4.793-0.115c3.784-0.11,7.57-0.214,11.349-0.429c0.443-0.025,0.839-0.36,0.831-0.831
							c-0.119-7.683-0.352-15.4-0.398-23.063c-0.001-0.172-0.16-0.372-0.349-0.349c-5.902,0.711-11.711,0.756-17.624,0.126
							C358.801,294.572,358.749,294.938,358.96,294.967L358.96,294.967z"/>
					</g>
				</g>
				<g style="opacity:0.5;">
					<g>
						<path style="fill:#094370;" d="M358.844,300.917c2.839,0.233,5.692,0.204,8.538,0.2c2.904-0.004,6.264-0.425,9.113,0.204
							c0.725,0.16,0.802-1.008,0.129-0.951c-2.906,0.246-5.967-0.027-8.89,0.011c-2.958,0.039-5.934,0.138-8.89-0.011
							C358.49,300.352,358.497,300.888,358.844,300.917L358.844,300.917z"/>
					</g>
				</g>
			</g>
			<g style="opacity:0.5;">
				<g>
					<path style="fill:#094370;" d="M429.78,284.79c5.734,0.193,11.433-0.924,16.543-3.581c0.35-0.182,0.043-0.684-0.306-0.523
						c-5.172,2.387-10.521,3.666-16.237,3.532C429.411,284.209,429.412,284.778,429.78,284.79L429.78,284.79z"/>
				</g>
			</g>
		</g>
		<g>
			<g>
				<path style="fill:#094370;" d="M412.107,200.041l-1.557-0.348c1.13-5.045,1.472-10.174,1.046-15.681
					c-0.259-3.365-1.487-5.883-3.645-7.484c-4.39-3.256-11.286-1.783-11.354-1.769l-0.346-1.557
					c0.31-0.068,7.662-1.649,12.643,2.039c2.551,1.889,3.994,4.798,4.293,8.647C413.625,189.556,413.272,194.839,412.107,200.041z"
					/>
			</g>
			<g>
				<path style="fill:#094370;" d="M404.835,247.945c-0.182-0.079-4.471-1.982-6.454-6.212c-2.141-4.563,4.53-26.34,6.057-30.44
					l1.494,0.557c-2.253,6.052-7.722,25.767-6.108,29.207c1.722,3.672,5.608,5.409,5.648,5.427L404.835,247.945z"/>
			</g>
			<g>
				<path style="fill:#094370;" d="M415.473,248.453l-0.531-1.503l0.266,0.751l-0.267-0.751c0.04-0.014,4.056-1.495,5.424-5.59
					c1.364-4.081-1.89-21.429-4.443-28.224l1.493-0.561c2.419,6.44,6.085,24.435,4.462,29.29
					C420.257,246.716,415.668,248.384,415.473,248.453z"/>
			</g>
			<g>
				<path style="fill:#094370;" d="M406.936,249.715c-0.367,0.039-0.749-0.022-1.103-0.2l-3.968-1.984
					c-0.985-0.492-1.383-1.689-0.891-2.674c0.492-0.986,1.69-1.384,2.674-0.891l3.968,1.984c0.985,0.492,1.383,1.689,0.891,2.674
					C408.192,249.255,407.588,249.645,406.936,249.715z"/>
			</g>
			<g>
				<path style="fill:#094370;" d="M412.925,250.403c-0.829,0.089-1.658-0.353-2.025-1.152c-0.458-1.001-0.019-2.184,0.982-2.643
					l5.41-2.479c1.003-0.458,2.184-0.018,2.643,0.982c0.458,1.001,0.019,2.184-0.982,2.643l-5.41,2.479
					C413.342,250.325,413.134,250.381,412.925,250.403z"/>
			</g>
			<path style="fill:#094370;" d="M413.943,201.62l0.509-8.44c0.039-0.638-0.174-1.252-0.598-1.73
				c-0.423-0.478-1.008-0.763-1.647-0.802c-1.32-0.073-2.45,0.932-2.531,2.244l-0.506,8.384c-2.577,1.2-6.05,5.007-8.203,16.245
				c-0.247,1.294,0.605,2.55,1.9,2.799c0.625,0.119,1.262-0.009,1.792-0.369c0.529-0.359,0.887-0.903,1.007-1.529
				c1.509-7.856,4.4-12.945,5.595-12.881c1.138,0.255,3.597,6.686,4.739,13.552c0.208,1.249,1.355,2.122,2.613,1.987
				c0.046-0.005,0.092-0.011,0.137-0.019c0.631-0.105,1.183-0.448,1.555-0.968c0.371-0.519,0.518-1.152,0.414-1.782
				C419.821,212.881,417.825,204.33,413.943,201.62z"/>
		</g>
		<g>
			<circle style="fill:#094370;" cx="361.908" cy="226.874" r="5.47"/>
			<circle style="fill:#C2C7F9;" cx="361.906" cy="226.85" r="2.945"/>
			<g>
				<path style="fill:#094370;" d="M359.878,223.029c-0.268-0.695-6.505-17.183-1.211-31.051
					c3.552-9.306,11.065-16.56,16.277-18.197l0.478,1.521c-4.849,1.523-11.885,8.39-15.265,17.244
					c-5.072,13.288,1.146,29.745,1.209,29.91L359.878,223.029z"/>
			</g>
		</g>
		<path style="opacity:0.15;fill:#094370;" d="M360.621,226.738c0.042-0.042,0.079-0.085,0.119-0.128
			C360.678,226.833,360.621,226.929,360.621,226.738z"/>
		<g>
			<path style="fill:#094370;" d="M376.016,196.889c-7.67,3.123-32.685,13.468-43.421,19.851c-1.153,0.685-1.582,2.14-0.992,3.344
				l27.577,56.284c0.616,1.256,2.122,1.791,3.392,1.205l41.684-19.253c1.291-0.596,1.854-2.126,1.258-3.417l-26.192-56.708
				C378.744,196.947,377.29,196.371,376.016,196.889z"/>
			<path style="fill:#C2C7F9;" d="M340.756,209.31l2.393,5.182c0.234,0.507,0.834,0.727,1.341,0.494l22.955-10.603
				c0.507-0.234,0.727-0.834,0.494-1.341l-2.393-5.182c-0.234-0.507-0.834-0.727-1.341-0.494l-5.67,2.619l-1.188-2.573
				c-0.179-0.387-0.638-0.557-1.026-0.378l-10.212,4.717c-0.388,0.179-0.556,0.638-0.378,1.026l1.188,2.573l-5.67,2.619
				C340.743,208.204,340.522,208.804,340.756,209.31z M357.132,200.634l-8.809,4.069l-0.864-1.871l8.809-4.069L357.132,200.634z"/>
			<g>
				<path style="fill:#F0C3B3;" d="M343.647,244.666c0,0,9.981-5.104,10.751-2.702c0.394,1.227-8.462,6.509-8.242,7.114
					s11.381-4.142,11.437-2.105c0.056,2.037-9.729,4.912-8.903,5.297c0.826,0.385,10.828-2.446,10.666-0.453
					c-0.147,1.817-10.17,3.701-9.949,4.307c0.22,0.606,8.023-0.177,7.859,1.255c-0.165,1.432-6.056,2.204-8.093,2.259
					c-8.535,1.031-10.661-13.637-7.604-19.216C342.236,241.823,343.647,244.666,343.647,244.666z"/>
			</g>
			<g>
				<path style="opacity:0.3;fill:#F26666;" d="M358.989,251.287c-0.492,1.728-6.743,2.306-9.418,3.198
					c-0.787,0.787-0.669,1.409,0.431,1.257c2.13-0.823,9.23-2.398,9.354-3.925C359.376,251.573,359.24,251.402,358.989,251.287z"/>
				<path style="opacity:0.3;fill:#F26666;" d="M357.054,246.499c-0.563,1.662-5.244,3.145-8.879,4.453
					c-0.436,0.523,0.087,1.034,0.714,1.034c1.441-0.862,8.751-3.25,8.703-5.012C357.586,246.709,357.388,246.561,357.054,246.499z"
					/>
				<path style="opacity:0.3;fill:#F26666;" d="M345.617,247.579c0,0.581-0.216,1.226,0.606,1.327
					c0.792-1.069,8.188-5.58,8.166-6.852C351.606,243.858,348.524,245.036,345.617,247.579z"/>
				<path style="opacity:0.3;fill:#F26666;" d="M340.387,249.281c0.639,5.55,3.467,11.001,8.785,10.358
					c1.758-0.048,6.377-0.631,7.719-1.709c-3.158,0.638-7.401,1.04-10.009-0.092C343.529,256.384,342.057,252.887,340.387,249.281z"
					/>
			</g>
		</g>
	</g>
	<g>
		<path style="fill:#1B2346;" d="M165.235,476.202c3.616,3.847,10.816,3.847,18.75,1.202c5.839-1.947,13.179-11.504,13.179-11.504
			s0.515-5.666-2.061-12.02h-20.09c0,0,0.075,4.659-3.943,8.4C166.492,466.544,161.832,472.582,165.235,476.202z"/>
		<path style="fill:#1B2346;" d="M249.189,476.202c-3.616,3.847-10.816,3.847-18.75,1.202c-5.839-1.947-13.179-11.504-13.179-11.504
			s-0.515-5.666,2.061-12.02h20.09c0,0-0.075,4.659,3.943,8.4C247.932,466.544,252.592,472.582,249.189,476.202z"/>
		<polygon style="fill:#1B2346;" points="168.574,345.305 172.111,457.492 198.958,457.492 206.711,363.641 216.147,457.492 
			243.055,457.492 245.85,345.994 		"/>
		<g>
			<path style="fill:#1B2346;" d="M233.808,154.881c-11.656,9.562-20.014,10.596-34.73,6.475
				c-13.276-3.514-22.577-14.801-26.865-27.671c-1.86-9.437-3.904-35.676,15.184-45.64c21.838-11.4,45.897-2.992,52.966,9.523
				C248.02,111.124,247.099,143.977,233.808,154.881z"/>
			<g>
				<g>
					<path style="fill:#F0C3B3;" d="M219.927,161.217c-0.187,2.628-0.693,13.549,0.113,14.482c0.738,0.855,8.905,3.752,11.826,4.076
						c-1.008,4.897-13.261,20.579-17.988,22.207c-0.261,0.09-0.532,0.174-0.806,0.152c-0.314-0.025-0.6-0.184-0.873-0.342
						c-9.538-5.532-19.636-13.493-24.171-23.543c1.164-0.05,7.845-0.804,8.62-2.463c0.913-1.953,1.524-10.811,0.826-14.559
						L219.927,161.217z"/>
				</g>
				<g style="opacity:0.3;">
					<path style="fill:#D66563;" d="M197.111,174.046c0.778-4.073,0.832-10.293,0.362-12.82l22.454-0.01
						c-0.149,2.096-0.805,10.815-0.057,14.064C213.397,178.514,202.697,176.197,197.111,174.046z"/>
				</g>
			</g>
			<g>
				<g>
					<path style="fill:#F0C3B3;" d="M238.643,130.316c0.276-0.457,0.564-0.91,0.916-1.313c1.128-1.293,2.926-1.966,4.626-1.733
						c1.7,0.233,3.25,1.367,3.987,2.916c0.233,0.49,0.389,1.014,0.506,1.543c0.988,4.448-0.804,9.288-4.153,12.377
						c-1.258,1.16-2.805,2.128-4.513,2.219c-0.74,0.039-1.516-0.102-2.11-0.546c-0.548-0.41-0.892-1.038-1.142-1.676
						C235.866,141.823,235.557,135.421,238.643,130.316z"/>
				</g>
				<g style="opacity:0.3;">
					<path style="fill:#D66563;" d="M246.363,132.024c1.705,1.456-0.237,8.63-2.906,11.091c-1.002,0.924-2.235,1.696-3.596,1.768
						c-0.59,0.031-1.208-0.081-1.681-0.435c-0.437-0.327-0.711-0.827-0.91-1.335C236.558,141.296,242.353,128.6,246.363,132.024z"/>
				</g>
				<g>
					<g>
						<path style="fill:#D66563;" d="M245.721,132.19c-4.471,1.261-6.54,5.977-6.375,10.254c0.015,0.393,0.625,0.395,0.613,0
							c-0.108-3.381,2.28-8.904,5.843-9.959C245.991,132.43,245.911,132.136,245.721,132.19L245.721,132.19z"/>
					</g>
				</g>
				<g>
					<g>
						<path style="fill:#D66563;" d="M241.204,137.305c0.734-0.664,1.432-0.232,1.508,0.713c0.097,1.203-0.79,2.116-1.477,2.988
							c-0.185,0.235,0.04,0.581,0.331,0.428c1.381-0.724,2.342-2.815,1.71-4.296c-0.485-1.139-1.763-1.1-2.577-0.337
							C240.363,137.116,240.865,137.612,241.204,137.305L241.204,137.305z"/>
					</g>
				</g>
			</g>
			<g>
				<path style="fill:#F0C3B3;" d="M180.042,140.54c0.061,3.178,3.194,25.59,23.725,29.503c10.503,2.002,22.615-0.865,29.982-10.474
					c9.124-11.9,7.507-41.45,6.077-46.345c-3.382-11.577-13.815-18.268-27.107-17.793
					C182.266,96.519,179.599,117.348,180.042,140.54z"/>
			</g>
			<g>
				<g>
					<path style="fill:#D66563;" d="M221.012,149.301c-4.668,2.722-10.872,1.909-15.704,0.069c-0.351-0.134-0.605,0.458-0.258,0.612
						c5.48,2.444,11.013,3.217,16.189-0.293C221.477,149.529,221.266,149.153,221.012,149.301L221.012,149.301z"/>
				</g>
			</g>
			<path style="opacity:0.3;fill:#D66563;" d="M209.358,156.298c0,1.332,1.808,1.822,4.039,1.822s4.039-0.491,4.039-1.822
				s-1.808-1.369-4.039-1.369S209.358,154.966,209.358,156.298z"/>
			<g>
				<path style="fill:#1B2346;" d="M192.431,124.005c3.692-0.746,8.368-1.024,11.78-0.333c3.52,0.713,4.689-4.231,1.141-4.629
					c-5.324-0.598-9.49,0.087-13.932,2.265C189.983,122.012,190.841,124.552,192.431,124.005L192.431,124.005z"/>
			</g>
			<g>
				<path style="fill:#1B2346;" d="M234.757,123.094c-3.723-0.57-8.407-0.624-11.782,0.229c-3.482,0.88-4.885-4.003-1.36-4.569
					c5.29-0.851,9.483-0.365,14.024,1.598C237.107,120.987,236.371,123.565,234.757,123.094L234.757,123.094z"/>
			</g>
			<ellipse style="fill:#1B2346;" cx="228.213" cy="134.502" rx="2.144" ry="3.982"/>
			<ellipse style="fill:#1B2346;" cx="198.338" cy="134.502" rx="2.144" ry="3.982"/>
			<ellipse style="opacity:0.3;fill:#D66563;" cx="231.21" cy="143.652" rx="4.662" ry="3.33"/>
			<ellipse style="opacity:0.3;fill:#D66563;" cx="192.757" cy="143.875" rx="4.662" ry="3.33"/>
			<g>
				<path style="opacity:0.3;fill:#D66563;" d="M214.976,134.251c-2.717,0-6.775,5.584-4.081,8.271
					c2.485,2.478,6.408,1.734,7.569-1.429C219.584,138.044,217.157,134.251,214.976,134.251z"/>
				<path style="opacity:0.5;fill:#FFFFFF;" d="M215.538,137.709c-1.029,0-2.343,0.993-1.323,2.011
					c0.941,0.939,2.427,0.657,2.867-0.541C217.506,138.024,216.364,137.709,215.538,137.709z"/>
				<g>
					<g>
						<path style="fill:#D66563;" d="M215.354,131.045c0.633,3.064,4.939,9.949,1.071,11.974c-0.396,0.207-0.124,0.852,0.304,0.722
							c5.877-1.792-0.076-9.627-1.02-12.794C215.641,130.718,215.306,130.813,215.354,131.045L215.354,131.045z"/>
					</g>
				</g>
				<g>
					<g>
						<path style="fill:#D66563;" d="M213.536,142.953c-0.409-0.762-1.048-1.293-1.871-1.55c-0.828-0.258-0.971,1.204-0.152,1.123
							c0.623-0.061,1.201,0.171,1.557,0.699C213.263,143.513,213.703,143.262,213.536,142.953L213.536,142.953z"/>
					</g>
				</g>
			</g>
			<path style="fill:#1B2346;" d="M175.018,110.443c2.608-7.195,8.716-19.764,32.569-20.536c11.514-0.373,23.1,1.808,29.896,12.372
				c6.021,9.359,4.784,24.947,4.784,24.947c-0.339,4.174-1.197,11.493-2.106,7.696c-1.1-4.594-1.786-12.392-2.879-15.812
				c4.911-21.418-10.302-12.311-22.344-11.616c-13.551,0.781-33.429-7.2-26.731,16.701c-2.65,6.108-1.196,15.709-3.163,18.896
				c-1.669-1.735-10.514-7.657-11.024-10.01C172.401,125.599,172.41,117.638,175.018,110.443z"/>
			<circle style="opacity:0.5;fill:#FFFFFF;" cx="228.245" cy="132.254" r="0.856"/>
			<circle style="opacity:0.5;fill:#FFFFFF;" cx="198.275" cy="132.254" r="0.856"/>
			<g>
				<g>
					<path style="fill:#F0C3B3;" d="M182.213,133.251c-1.578-2.74-4.628-4.881-7.754-4.401c-1.215,0.186-2.367,0.757-3.251,1.611
						c-1.486,1.435-2.14,3.589-2.049,5.653c0.092,2.064,0.864,4.047,1.885,5.842c1.912,3.362,5.147,6.379,9.013,6.45
						c1.29,0.024,2.706-0.372,3.408-1.455c0.35-0.539,0.483-1.186,0.61-1.816C184.347,143.785,185.225,138.484,182.213,133.251z"/>
				</g>
				<path style="opacity:0.3;fill:#D66563;" d="M173.478,133.785c-2.717-0.016-0.961,6.91,1.597,9.728
					c2.537,2.793,5.95,3.753,5.543-1.01S176.882,133.806,173.478,133.785z"/>
				<g>
					<g>
						<path style="fill:#D66563;" d="M174.249,133.917c3.564,1.054,5.951,6.577,5.843,9.959c-0.013,0.395,0.597,0.393,0.613,0
							c0.166-4.278-1.902-8.992-6.375-10.254C174.14,133.568,174.06,133.861,174.249,133.917L174.249,133.917z"/>
					</g>
				</g>
				<g>
					<g>
						<path style="fill:#D66563;" d="M179.351,138.232c-0.816-0.764-2.088-0.8-2.577,0.337c-0.635,1.479,0.333,3.575,1.71,4.296
							c0.289,0.151,0.517-0.191,0.331-0.428c-0.687-0.872-1.573-1.784-1.477-2.988c0.075-0.936,0.769-1.382,1.508-0.713
							C179.186,139.043,179.687,138.548,179.351,138.232L179.351,138.232z"/>
					</g>
				</g>
			</g>
			<g style="opacity:0.45;">
				<g style="opacity:0.65;">
					
						<ellipse transform="matrix(0.9359 -0.3522 0.3522 0.9359 -20.2902 74.0981)" style="fill:#FFFFFF;" cx="193.515" cy="92.817" rx="6.695" ry="3.472"/>
				</g>
				<g style="opacity:0.65;">
					
						<ellipse transform="matrix(0.6962 -0.7178 0.7178 0.6962 -15.5331 162.2675)" style="fill:#FFFFFF;" cx="183.955" cy="99.486" rx="3.143" ry="1.63"/>
				</g>
			</g>
		</g>
		<g>
			<path style="fill:#00CBCD;" d="M247.332,184.615c-9.334-2.938-23.688-7.676-23.688-7.676
				c-1.402,5.435-12.558,13.036-12.558,13.036s-14.458-7.778-17.223-13.119c-3.235-0.181-14.118,3.252-22.858,6.445
				c9.522,33.522,18.054,68.935,42.569,94.325C227.714,247.777,238.213,216.776,247.332,184.615z"/>
		</g>
		<g>
			<path style="fill:#009EB2;" d="M208.951,201.78c-3.629,19.677-5.346,30.949-8.076,54.149c8.418,15.136,17.245,14.143,22.99-1.779
				c-2.443-14.887-5.454-36.806-9.215-52.012C212.971,201.948,212.596,202.691,208.951,201.78z"/>
		</g>
		<path style="fill:#F0C3B3;" d="M153.724,314.594v3.653c0,0,5.074,9.72,3.935,12.574c-1.139,2.854-3.507,2.233-3.507,2.233
			s1.022,3.52-0.428,4.659c-1.45,1.139-3.752,0.414-3.752,0.414s-2.325,1.854-4.671-0.626c0,0-3.278,1.144-4.313-2.377
			c0,0-1.893,0.098-3.017-2.591s4.546-15.218,4.546-15.218v-3.695L153.724,314.594z"/>
		<g>
			<path style="fill:#FFFFFF;" d="M270.168,278.517c1.561-9.375,0.647-19.682,0.511-23.569
				c-0.416-11.953-6.657-57.857-13.064-64.474c-4.102-4.236-19.686-9.355-24.29-10.77c-0.539,3.729-9.044,53.204-21.573,73.318
				c-9.73-16.356-25.55-69.824-26.427-74.758c-9.666,2.203-22.482,7.454-27.304,12.732c-4.822,5.278-9.122,32.475-14.436,63.952
				c-5.089,30.147-8.262,59.543-7.449,60.298c3.011,2.798,19.788,3.502,24.309,1.715c1.009-0.399,7.357-60.229,7.357-60.229
				l-4.734,108.377c32.776,15.622,87.64-2.49,87.64-2.49c-3.982-18.685-4.221-110.544-4.221-110.544
				c0.94-0.321,2.463,22.762,4.261,40.767C260.012,290.024,268.607,287.893,270.168,278.517z"/>
		</g>
		<path style="opacity:0.15;fill:#094370;" d="M169.721,241.668c-4.795-7.671,1.918-17.26-4.795-23.973
			c-5.753,27.809-4.795,56.576-12.466,84.384c-0.959,0.959-2.877,2.877-3.836,2.877c-4.835-2.418-8.145-6.741-10.653-11.528
			c-1.553,12.679-2.274,21.412-1.836,21.819c3.011,2.798,19.788,3.502,24.309,1.715c1.009-0.399,7.357-60.229,7.357-60.229
			l-4.734,108.377c2.352,1.121,4.82,2.063,7.371,2.856c2.156-42.749,5.683-85.581,3.118-129.174
			C172.598,240.709,170.68,242.627,169.721,241.668z"/>
		<path style="opacity:0.15;fill:#094370;" d="M254.56,289.496c-5.119-16.758-7.353-36.592,4.34-49.746
			c-1.918-0.959-5.753,1.918-5.753,0.959c-1.918-6.712-4.795-14.384-3.836-22.055c-2.877,3.836-4.795,7.671-4.795,12.466
			c-3.651,44.722,0.51,89.444-3.213,134.165c5.841-1.491,9.404-2.665,9.404-2.665c-3.982-18.685-4.221-110.544-4.221-110.544
			c0.943-0.322,2.476,22.953,4.283,40.99C251.791,291.664,253.17,290.552,254.56,289.496z"/>
		<path style="opacity:0.15;fill:#094370;" d="M243.665,183.256c-2.249-0.855-4.425-1.617-6.282-2.241
			c-0.154,13.74,1.464,31.748,1.387,42.623c0,0-7.729,4.12-12.472,5.564c18.219,13.425-4.93,26.284-14.519,37.791
			c-9.12-11.63-19.612-20.4-27.042-30.473c0-0.959,4.344-7.603,6.464-11.063c-4.795-1.918-8.054-4.885-12.849-6.803
			c2.385-14.453,1.56-26.708,3.355-39.453c-2.058,0.581-4.179,1.257-6.292,2.029c-1.777,15.991-2.002,27.067-2.002,43.057
			c2.929,2.029,6.635,3.716,10.693,3.956c-1.497,3.403-2.335,9.51-2.335,9.51s10.286,27.816,27.856,41.886
			c-1.486,30.849-2.119,61.649-9.463,91.769c4.359-0.117,8.673-0.442,12.837-0.901c0.442-29.577,1.695-59.586-1.795-89.101
			c8.096-17.043,39.835-32.266,21.804-51.245c3.836-0.959,9.589-3.836,9.589-5.753C244.072,210.415,243.848,196.986,243.665,183.256
			z"/>
		<g>
			<path style="fill:#007685;" d="M209.001,207.078c1.991,0.382,4.429,0.293,5.951-0.126c4.09-4.958,3.394-12.159,0.377-20.184
				c-2.335,1.908-4.243,3.208-4.243,3.208s-0.78-0.42-2.003-1.126C205.062,196.061,203.089,201.396,209.001,207.078z"/>
		</g>
		<g>
			<path style="fill:#3EF2F4;" d="M211.22,192.264c2.699,3.568,4.186,5.621,6.911,9.73c5.345-8.017,8.725-15.125,10.869-23.86
				c-3.18-0.751-5.356-1.194-5.356-1.194c-1.402,5.435-12.558,13.036-12.558,13.036s-14.458-7.778-17.223-13.119
				c-0.843-0.047-2.213,0.092-3.922,0.376c0.593,10.206,8.287,18.131,15.08,25.401C207.328,197.958,208.816,196.257,211.22,192.264z
				"/>
		</g>
		<g>
			<g>
				<g>
					<path style="fill:#00CBCD;" d="M244.169,213.689c1.158,6.395,1.483,12.995,1.727,19.479c0.129,3.424,0.193,6.849,0.185,10.275
						c-0.007,2.859-0.323,5.782-0.192,8.632c0.029,0.637,1.052,0.856,1.175,0.159c0.498-2.83,0.306-5.926,0.274-8.791
						c-0.039-3.553-0.191-7.107-0.42-10.652c-0.415-6.446-1.043-12.886-2.289-19.229C244.569,213.26,244.114,213.39,244.169,213.689
						L244.169,213.689z"/>
				</g>
			</g>
			<g>
				<g>
					<path style="fill:#00CBCD;" d="M250.36,217.129c-1.256,6.672-2.609,13.325-4.011,19.968c-0.158,0.748,0.999,1.065,1.146,0.316
						c1.311-6.676,2.481-13.375,3.558-20.092C251.126,216.871,250.447,216.671,250.36,217.129L250.36,217.129z"/>
				</g>
			</g>
			<g>
				<g>
					<path style="fill:#00CBCD;" d="M169.702,222.581c-0.69,6.177-1.113,12.364-1.508,18.565c-0.218,3.433-0.478,6.863-0.713,10.295
						c-0.184,2.687-0.751,5.563-0.622,8.249c0.033,0.692,1.035,0.867,1.231,0.167c0.679-2.429,0.56-5.299,0.714-7.804
						c0.217-3.518,0.33-7.041,0.47-10.562c0.25-6.301,0.298-12.612,0.578-18.91C169.856,222.483,169.712,222.488,169.702,222.581
						L169.702,222.581z"/>
				</g>
			</g>
			<g>
				<g>
					<path style="fill:#00CBCD;" d="M137.806,308.809c7.033,2.784,14.824,2.897,22.029,0.66c0.727-0.226,0.404-1.388-0.314-1.14
						c-7.116,2.462-14.447,2.343-21.58-0.008C137.626,308.218,137.51,308.692,137.806,308.809L137.806,308.809z"/>
				</g>
			</g>
			<g>
				<g>
					<path style="fill:#00CBCD;" d="M165.953,226.316c0.479,4.871,0.014,9.852,0.097,14.74c0.046,2.732,0.125,5.476,0.414,8.194
						c0.149,1.401,0.138,3.671,1.205,4.722c0.311,0.307,0.812,0.071,0.832-0.345c0.091-1.858-0.776-4.081-0.954-5.964
						c-0.248-2.618-0.34-5.247-0.444-7.874c-0.177-4.491-0.156-9.066-0.781-13.524C166.294,226.057,165.932,226.104,165.953,226.316
						L165.953,226.316z"/>
				</g>
			</g>
			<g>
				<g>
					<path style="fill:#00CBCD;" d="M181.948,180.283c-1.21,12.984-2.411,25.973-3.763,38.943c-0.023,0.218,0.141,0.478,0.33,0.575
						c4.097,2.112,8.215,4.185,12.323,6.275c-0.086-0.327-0.172-0.655-0.258-0.982c-1.56,2.516-3.109,5.04-4.61,7.591
						c-0.553,0.94-2.139,2.835-1.927,4.054c0.113,0.649,0.949,1.368,1.34,1.86c1.199,1.512,2.437,2.994,3.675,4.474
						c7.028,8.396,14.147,16.995,22.198,24.44c0.696,0.643,1.74-0.397,1.042-1.042c-7.5-6.935-14.147-14.906-20.738-22.69
						c-1.322-1.561-2.636-3.128-3.932-4.71c-0.675-0.825-1.632-1.708-2.113-2.667c-0.172-0.344-0.029-0.072-0.063,0.223
						c0.019-0.168,0.26-0.59,0.344-0.704c0.669-0.894,1.154-2.048,1.725-3.014c1.407-2.379,2.856-4.732,4.297-7.091
						c0.193-0.315,0.085-0.811-0.258-0.982c-2.357-1.179-4.713-2.358-7.07-3.537c-1.031-0.516-2.062-1.032-3.093-1.548
						c-1.241-0.621-1.624-0.703-1.778-2.042c-0.23-2.001,0.318-4.393,0.46-6.407c0.14-1.974,0.282-3.948,0.426-5.922
						c0.61-8.367,1.217-16.733,1.854-25.098C182.381,180.017,181.973,180.022,181.948,180.283L181.948,180.283z"/>
				</g>
			</g>
			<g>
				<g>
					<path style="fill:#00CBCD;" d="M237.552,182.157c-0.694,11.154,0.182,22.393,0.515,33.546c0.058,1.943,0.114,3.889,0.075,5.833
						c-0.009,0.455,0.113,1.303-0.066,1.737c-0.046,0.111,0.136-0.101-0.437,0.174c-0.55,0.264-1.085,0.564-1.634,0.831
						c-2.239,1.092-4.527,2.079-6.792,3.117c-0.735,0.337-2.932,0.924-3.177,1.899c-0.288,1.142,1.751,2.97,2.368,3.737
						c1.915,2.38,3.896,4.721,5.987,6.95c-0.039-0.305-0.079-0.61-0.118-0.916c-7.12,9.606-15.216,18.359-23.036,27.386
						c-0.642,0.741,0.436,1.829,1.082,1.082c7.9-9.129,16.065-17.99,23.258-27.705c0.201-0.272,0.094-0.69-0.118-0.916
						c-1.695-1.805-3.307-3.69-4.887-5.597c-0.79-0.954-1.587-1.908-2.323-2.904c-0.154-0.209-0.366-0.669-0.58-0.809
						c-0.452-0.296-0.279,0.251-0.09,0.237c0.641-0.047,1.581-0.774,2.174-1.047c1.063-0.49,2.13-0.971,3.194-1.459
						c1.819-0.834,4.372-1.583,5.915-2.901c1.674-1.429,0.55-6.227,0.435-8.214c-0.314-5.448-0.683-10.892-0.997-16.34
						c-0.34-5.899-0.685-11.813-0.443-17.724C237.866,181.959,237.564,181.962,237.552,182.157L237.552,182.157z"/>
				</g>
			</g>
			<g>
				<g>
					<path style="fill:#00CBCD;" d="M211.538,253.628c-0.182,29.779,0.815,59.548,0.674,89.326
						c-0.033,6.897-0.119,13.797-0.451,20.687c-0.044,0.907,1.367,0.905,1.41,0c1.356-28.651,0.083-57.476-0.408-86.137
						c-0.136-7.957-0.386-15.918-0.441-23.876C212.317,253.124,211.541,253.123,211.538,253.628L211.538,253.628z"/>
				</g>
			</g>
		</g>
		<g>
			<g>
				<path style="fill:#094370;" d="M233.278,200.894l-1.538-0.431c1.398-4.984,2.893-18.785-2.325-23.297
					c-4.14-3.579-9.401-3.698-9.47-3.697l-0.046-1.596c0.318-0.009,5.814,0.022,10.527,4.057
					C237.14,181.677,234.719,195.755,233.278,200.894z"/>
			</g>
			<g>
				<path style="fill:#094370;" d="M223.459,248.398c-0.177-0.089-4.365-2.219-6.122-6.554c-1.897-4.676,5.931-26.092,7.675-30.11
					l1.464,0.636c-2.575,5.93-9.091,25.349-7.661,28.874c1.526,3.763,5.319,5.706,5.357,5.726L223.459,248.398z"/>
			</g>
			<g>
				<path style="fill:#094370;" d="M234.068,249.472l-0.451-1.531l0.225,0.765l-0.227-0.765c0.041-0.012,4.134-1.279,5.72-5.3
					c1.581-4.007-0.749-21.524-2.941-28.453l1.523-0.482c2.076,6.567,4.783,24.753,2.903,29.52
					C238.942,247.99,234.266,249.414,234.068,249.472z"/>
			</g>
			<g>
				<path style="fill:#094370;" d="M225.465,250.279c-0.369,0.02-0.747-0.062-1.092-0.258l-3.861-2.195
					c-0.958-0.544-1.293-1.763-0.748-2.721c0.545-0.959,1.763-1.293,2.721-0.748l3.861,2.195c0.958,0.544,1.293,1.763,0.748,2.721
					C226.746,249.886,226.121,250.244,225.465,250.279z"/>
			</g>
			<g>
				<path style="fill:#094370;" d="M231.417,251.286c-0.834,0.045-1.639-0.441-1.963-1.26c-0.405-1.025,0.097-2.184,1.122-2.59
					l5.54-2.191c1.027-0.405,2.184,0.098,2.59,1.122c0.405,1.025-0.097,2.184-1.122,2.59l-5.54,2.191
					C231.838,251.23,231.626,251.275,231.417,251.286z"/>
			</g>
			<path style="fill:#094370;" d="M235.029,202.57l0.958-8.411c0.073-0.635-0.107-1.261-0.505-1.761
				c-0.398-0.501-0.967-0.816-1.604-0.889c-1.316-0.143-2.499,0.801-2.649,2.109l-0.952,8.355c-2.64,1.062-6.314,4.684-9.065,15.804
				c-0.316,1.281,0.469,2.581,1.75,2.899c0.619,0.152,1.262,0.058,1.811-0.274c0.548-0.331,0.934-0.855,1.088-1.475
				c1.927-7.774,5.087-12.707,6.279-12.58c1.124,0.315,3.241,6.876,4.017,13.801c0.141,1.259,1.242,2.193,2.507,2.125
				c0.046-0.002,0.093-0.007,0.138-0.012c0.636-0.071,1.206-0.385,1.606-0.885c0.399-0.499,0.58-1.124,0.509-1.76
				C240.307,214.141,238.766,205.486,235.029,202.57z"/>
		</g>
		<g>
			<circle style="fill:#094370;" cx="181.665" cy="225.049" r="5.477"/>
			<circle style="fill:#C2C7F9;" cx="181.664" cy="225.025" r="2.949"/>
			<g>
				<path style="fill:#094370;" d="M179.84,221.097c-0.231-0.709-4.699-21.086,1.332-34.669c4.046-9.115,9.456-14.837,16.297-15.348
					l-0.163,1.587c-6.596,0.924-10.825,5.737-14.675,14.409c-5.778,13.015-1.327,33.36-1.273,33.528L179.84,221.097z"/>
			</g>
		</g>
		<g>
			<path style="fill:#1B2346;" d="M218.75,240.109l-10.454,68.924c-0.252,1.663,1.022,3.165,2.703,3.187l47.312,0.635
				c1.356,0.018,2.526-0.947,2.766-2.282l12.481-69.559c0.305-1.7-1.002-3.261-2.728-3.261h-49.339
				C220.121,237.753,218.956,238.754,218.75,240.109z"/>
			<path style="fill:#F0C3B3;" d="M260.459,271.887c0,0-5.242-1.517-4.961-3.758s6.728-1.183,8.223-0.831
				c1.495,0.353,6.479,2.152,6.541,4.589c0.062,2.436-1.419,2.824-1.419,2.824s1.69,1.088,1.165,3.023
				c-0.525,1.934-2.121,2.034-2.121,2.034s0.709,3.867-1.389,4.411c0,0,0.632,2.833-1.813,3.007
				c-2.444,0.174-8.98-2.082-9.198-3.476c-0.218-1.394,1.14-1.937,1.14-1.937s-4.072-0.388-4.442-2.716
				c-0.37-2.328,1.727-2.089,1.727-2.089s-2.9-1.092-2.653-3.731C251.506,270.599,260.459,271.887,260.459,271.887z"/>
		</g>
	</g>
</g>
</svg>
